<?xml version="1.0" encoding="utf-8"?>
<!-- Generator: Adobe Illustrator 22.1.0, SVG Export Plug-In . SVG Version: 6.00 Build 0)  -->
<svg version="1.1" id="Layer_1" xmlns="http://www.w3.org/2000/svg" xmlns:xlink="http://www.w3.org/1999/xlink" x="0px" y="0px"
	 viewBox="0 0 333 94" style="enable-background:new 0 0 333 94;" xml:space="preserve">
<style type="text/css">
	.st0{fill:#FFFFFF;}
</style>
<path class="st0" d="M285.1,72.4c-7.5,0-6.5-6.8-7-8.3c-0.2-3.7-0.9-4.8-5.8-4.8h-5.5c-5.4,0-5.6,3.2-5.6,5.6
	c0.1,12.3,13,14.6,25.8,14.6c14.6,0,25.7-5,25.7-17.7c0-7.8-2.8-11.6-9.8-14.2c6.6-2.7,8.6-7.4,8.6-11.9c0-8.7-6.6-15.7-26.9-15.7
	c-14.5,0-21.3,4.9-22.2,14c-0.7,2.9,1.2,5.1,4.9,5.1L273,39c2.3,0.3,6.4-1.7,5.9-5.1c0-2.8,0.5-6.6,6.3-6.6c5.1,0,6.5,2.7,6.5,7.1
	c0,6.6-2.4,10.1-8.4,10l-8.6-0.1V52l8.6-0.5c7.3-0.3,9.4,4.5,9.4,9.5C292.7,66.1,292.4,72.4,285.1,72.4z"/>
<path class="st0" d="M229.5,66.5c0,3.4-2.3,4.1-3.6,4.4c-2.3,0.7-9.4,1.4-12.4,1.2v7c9.3-0.1,16.4,0,23.3,0c6.8,0,13.9-0.1,23,0
	v-7.2c-11.1,0-12.3-0.6-12.3-5.2V21h-15.1c-5.1,4.8-11.5,8.3-21.1,10.7v8.8c2.9-1.7,14.7-5.9,18.2-7.9V66.5z"/>
<rect x="178.8" y="47.8" class="st0" width="30" height="13.9"/>
<path class="st0" d="M126.5,79.9c3.7,0,6.7-0.1,10.6-0.7c7-0.9,14.6-3.1,23.2-3.1l0.2-15.8c0-1.7-0.8-5.3,7.9-5.3v-6.8
	c-5.1,0.5-11.1,0.2-17.3,0.2c-6.5,0-12.6,0.2-22.9-0.1v6.6c14.2-0.1,13,0.7,13.1,5.5c0.1,7.7,0.1,8.5-0.6,9.2
	c-2.2,2.2-8.4,3.1-11.6,3.1c-16.8,0-20.1-13.2-20.1-24c0-12.6,1.9-26.8,21.3-26.8c13.7,0,15,2.6,17.2,13.1l11.1,0.5l-0.5-18
	c-11-1.5-18.2-2.8-27.8-2.8c-30.5,0-42.2,9.9-42.2,33.6C88.2,68.8,100.1,79.9,126.5,79.9z"/>
<path class="st0" d="M332.8,0.6H0.5v92.8h332.2V0.6z M328,88.7H5.2V5.3H328V88.7z"/>
<path class="st0" d="M28.5,27.8v38.6c0,3.9,0.8,5.6-8.7,5.6v7.2h38.4V72c-10.6,0-10.1-0.7-10.1-5.4V53.8c2.4,0.1,4.9,0.1,8.4,0
	c18.3-0.7,28.1-4.9,28.1-20.6c0-13.2-6.5-17.3-22.7-17.4c-11.4-0.1-35.8,0.4-42.5,0v7C29.2,22.7,28.5,23.9,28.5,27.8z M48.1,24.4
	h3.1c9.7,0,12.3,3.4,12.3,10.1c0,8.6-4.5,13.7-15.4,13.5V24.4z"/>
</svg>
