<?xml version="1.0" encoding="UTF-8" standalone="no"?>
<!-- Created with Inkscape (http://www.inkscape.org/) -->

<svg xmlns:dc="http://purl.org/dc/elements/1.1/" xmlns:cc="http://creativecommons.org/ns#" xmlns:rdf="http://www.w3.org/1999/02/22-rdf-syntax-ns#" xmlns:svg="http://www.w3.org/2000/svg" xmlns="http://www.w3.org/2000/svg" xmlns:sodipodi="http://sodipodi.sourceforge.net/DTD/sodipodi-0.dtd" xmlns:inkscape="http://www.inkscape.org/namespaces/inkscape" id="svg3209" version="1.1" inkscape:version="0.48.5 r10040" width="1000" height="505.79761" sodipodi:docname="Solo-a-star-wars-story.svg">
  <metadata id="metadata3215">
    <rdf:RDF>
      <cc:Work rdf:about="">
        <dc:format>image/svg+xml</dc:format>
        <dc:type rdf:resource="http://purl.org/dc/dcmitype/StillImage" />
        <dc:title />
      </cc:Work>
    </rdf:RDF>
  </metadata>
  <defs id="defs3213" />
  <sodipodi:namedview pagecolor="#ffffff" bordercolor="#666666" borderopacity="1" objecttolerance="10" gridtolerance="10" guidetolerance="10" inkscape:pageopacity="0" inkscape:pageshadow="2" inkscape:window-width="1366" inkscape:window-height="706" id="namedview3211" showgrid="false" inkscape:zoom="0.31790678" inkscape:cx="901.39316" inkscape:cy="-157.26039" inkscape:window-x="-8" inkscape:window-y="-8" inkscape:window-maximized="1" inkscape:current-layer="svg3209" inkscape:object-paths="false" fit-margin-top="0" fit-margin-left="0" fit-margin-right="0" fit-margin-bottom="0" />
  <g id="text2999" style="font-size:13.80000019px;font-style:italic;font-weight:normal;text-align:start;text-anchor:start;fill:black;font-family:EPISODE I" transform="matrix(2.0653486,-0.40240601,0.40240601,2.0653486,780.64077,548.52819)" />
  <text xml:space="preserve" x="1472.9883" y="661.33881" style="font-size:28.32340431px;font-style:normal;font-weight:normal;text-align:start;text-anchor:start;fill:black;font-family:EPISODE I" id="text3052" transform="matrix(1,-0.13165199,0,1,0,0)"> </text>
  <g id="g3290" transform="matrix(1.0259344,0,0,1.0259344,-1.1795191,-1.2197978)">
    <g transform="matrix(9.1527992,-1.6138791,0,9.1527992,-2179.0072,566.78177)" id="g3147" style="font-size:32.54999924px;font-style:normal;font-weight:normal;text-align:start;text-anchor:start;fill:#fd0;fill-opacity:1;font-family:SF Distant Galaxy">
      <path d="m 258.56955,11.324493 3.04802,3.684078 c 1.06399,1.251597 3.77009,4.693593 3.77009,6.435336 0,1.58 -0.0438,2.802649 -1.44241,4.010556 -1.41984,1.197315 -2.25034,0.916461 -3.96701,0.915388 l -13.77233,-0.0086 0.0546,-6.367204 9.54257,0.06862 0.68524,-0.0177 -4.06959,-4.304215 c -0.82871,-0.974829 -2.75402,-3.519088 -2.75402,-5.67003 0,-1.769465 0.15867,-2.748686 1.53612,-4.0519759 1.14383,-1.0910278 4.06108,-0.8820397 6.16723,-1.0750107 l 10.32258,0.057855 0.009,6.3657086 z" style="font-size:32.54999924px;font-style:normal;font-weight:normal;text-align:start;text-anchor:start;fill:#fd0;fill-opacity:1;font-family:SF Distant Galaxy" id="path3128" inkscape:connector-curvature="0" sodipodi:nodetypes="ccccscccccsccccc" />
      <path d="m 285.46862,16.02244 c -2e-5,-1.091346 -0.12868,-3.084542 -0.98692,-3.900424 -0.83707,-0.805259 -2.87713,-1.231842 -3.98966,-1.231857 -1.13375,1.5e-5 -2.63812,0.338458 -3.47517,1.143717 -0.83707,0.805286 -0.93693,2.638631 -0.98245,4.028877 0.0668,1.347759 -0.12776,2.478219 0.87319,3.831348 0.94631,0.961115 2.50531,1.246378 3.63906,1.246372 1.12313,6e-6 2.97727,-0.275826 3.81434,-1.081106 0.84764,-0.815861 1.04212,-2.245919 1.10761,-4.036927 z m 7.83,0.44659 c -2e-5,3.040974 -0.95763,5.58291 -3.30986,7.712641 -2.2569,2.066163 -5.93233,2.62059 -9.00507,2.62059 -3.47947,0 -6.308,-0.413744 -8.97777,-2.42589 -2.43419,-1.952981 -3.8015,-4.572043 -3.8015,-7.613017 0,-3.975754 0.89148,-7.0590828 2.92746,-8.736061 2.27807,-2.0555456 4.99751,-2.9917534 8.04908,-2.9917751 3.83028,-0.3509414 8.39352,0.6118907 11.21751,3.1600065 2.35223,2.1509436 2.90013,5.2537436 2.90015,8.2735056 z" style="font-size:32.54999924px;font-style:normal;font-weight:normal;text-align:start;text-anchor:start;fill:#fd0;fill-opacity:1;font-family:SF Distant Galaxy" id="path3130" inkscape:connector-curvature="0" sodipodi:nodetypes="cccscccccccscscccc" />
      <path d="m 294.66523,26.729435 0.0966,-21.4652197 7.24906,0.1233967 0.0773,14.564468 8.22757,0.148269 -0.0386,6.663853 z" style="font-size:32.54999924px;font-style:normal;font-weight:normal;text-align:start;text-anchor:start;fill:#fd0;fill-opacity:1;font-family:SF Distant Galaxy" id="path3132" inkscape:connector-curvature="0" sodipodi:nodetypes="ccccccc" />
      <path sodipodi:nodetypes="cccscccccccscscccc" inkscape:connector-curvature="0" id="path3137" style="font-size:32.54999924px;font-style:normal;font-weight:normal;text-align:start;text-anchor:start;fill:#fd0;fill-opacity:1;font-family:SF Distant Galaxy" d="m 328.51556,16.511095 c -2e-5,-1.091346 -0.12868,-3.084542 -0.98692,-3.900424 -0.83707,-0.805259 -2.87713,-1.231842 -3.98966,-1.231857 -1.13375,1.5e-5 -2.63812,0.338458 -3.47517,1.143717 -0.83707,0.805286 -0.93693,2.638631 -0.98245,4.028877 0.0668,1.347759 -0.12776,2.478219 0.87319,3.831348 0.94631,0.961115 2.50531,1.246378 3.63906,1.246372 1.12313,6e-6 2.97727,-0.275826 3.81434,-1.081106 0.84764,-0.815861 1.04212,-2.245919 1.10761,-4.036927 z m 7.83,0.44659 c -2e-5,3.040974 -0.95763,5.58291 -3.30986,7.712641 -2.2569,2.066163 -5.93233,2.62059 -9.00507,2.62059 -3.47947,0 -6.308,-0.413744 -8.97777,-2.42589 -2.43419,-1.952981 -3.8015,-4.572043 -3.8015,-7.613017 0,-3.975754 0.89148,-7.059083 2.92746,-8.7360614 2.27807,-2.0555456 4.99751,-2.9917534 8.04908,-2.9917751 3.83028,-0.3509414 8.39352,0.6118907 11.21751,3.1600065 2.35223,2.150944 2.90013,5.253744 2.90015,8.273506 z" />
    </g>
    <path sodipodi:nodetypes="ccccccccccccccccccccc" inkscape:connector-curvature="0" id="path3219" d="m 208.22386,431.27735 c -3.70714,5.09199 -5.44997,10.77328 -4.34332,17.30941 L 34.301331,477.00996 C 10.327233,480.46157 1.1497023,467.1891 1.1497023,455.54885 l 0,-273.88464 C 2.231287,171.24836 5.4705731,161.65449 20.694641,156.62625 L 943.84921,1.5255165 c 18.75316,-2.12925153 28.70839,6.0617972 32.02168,18.4271445 l -0.38457,279.104209 c 0,10.85815 -11.21609,20.56025 -18.81037,22.59513 l -216.15764,36.94462 0,-16.7109 202.51793,-34.14441 c 10.57886,-2.8346 15.95073,-7.95114 16.25925,-20.41439 l 0,-250.211721 C 959.01681,25.073003 951.35643,17.473756 935.62925,19.410687 L 36.15175,170.42268 c -17.509509,5.67224 -17.884258,13.23724 -17.884258,18.52298 l 0,257.27782 c 0,11.52683 9.072178,14.73605 19.672683,13.4132 z" style="fill:#fd0;fill-opacity:1;stroke:none" />
    <path inkscape:connector-curvature="0" id="path3075" style="font-size:13.80000019px;font-style:normal;font-weight:normal;text-align:start;text-anchor:start;fill:#fd0;fill-opacity:1;font-family:EPISODE I" d="m 160.87528,481.7807 0.0552,0.15869 6.54149,-0.8612 -3.23617,-8.81225 -0.20744,0.23476 z m 3.9968,-16.84534 c 0.38723,-0.17081 0.70531,0.0501 0.95425,0.66267 l 8.67129,21.2765 c 0.55317,1.13497 0.9911,1.87023 1.31382,2.20575 0.48864,0.5073 0.92659,0.80461 1.31384,0.89193 0.62693,0.065 1.27231,0.0538 1.93617,-0.0336 l 0.16604,0.13027 c -4e-5,0.31348 -0.14285,0.48902 -0.42873,0.52665 l -1.14788,0.22027 c -4.95107,0.65182 -7.44043,0.88735 -7.46808,0.70659 l 0,-0.31808 c 0.17507,-0.16135 0.36878,-0.256 0.58086,-0.28392 0.13833,-0.12886 0.22586,-0.31555 0.26277,-0.56013 l -2.84895,-7.48025 -0.20744,-0.0695 -7.71702,1.01596 -0.26277,0.44949 -2.00531,5.78209 -0.26278,1.19629 c -0.0369,0.7148 0.0829,1.12313 0.35959,1.225 l 0.42871,0.10952 c 0.90353,-0.11895 1.41524,-0.14944 1.53511,-0.0914 0.10139,0.26325 0.0414,0.46014 -0.1798,0.59069 -2.26809,0.23405 -5.08475,0.60487 -8.45,1.11246 l -0.20743,-0.18014 0.0552,-0.36684 0.35958,-0.15799 c 0.83901,-0.009 1.6273,-0.30643 2.36488,-0.89219 0.56243,-0.50737 1.13866,-1.59281 1.72873,-3.25631 l 8.57446,-23.49161 c 0.17528,-0.44717 0.3688,-0.75385 0.58086,-0.92009 z" />
    <g transform="matrix(1.934722,-0.32227171,0,1.934722,207.53911,442.04101)" id="g3087" style="font-size:13.80000019px;font-style:normal;font-weight:normal;text-align:start;text-anchor:start;fill:#fd0;fill-opacity:1;font-family:EPISODE I">
      <path inkscape:connector-curvature="0" d="m 270.49424,17.710593 c 0.0674,-0.01797 0.13702,0.009 0.20889,0.08086 0.0854,1.653127 0.79287,2.591993 2.12256,2.816602 0.43125,0.07188 0.87148,0.03818 1.3207,-0.101075 0.70527,-0.260545 1.15224,-0.804099 1.34092,-1.630664 0.018,-0.309958 0.002,-0.586227 -0.0472,-0.828808 -0.018,-0.139255 -0.11455,-0.388571 -0.28974,-0.74795 l -0.28301,-0.417773 -0.82881,-0.828809 c -1.03321,-0.795111 -1.69805,-1.356633 -1.99453,-1.68457 -0.34141,-0.327922 -0.65137,-0.723234 -0.92988,-1.185937 -0.6918,-1.383585 -0.70079,-2.618935 -0.027,-3.7060552 0.67383,-0.9298699 1.6666,-1.4464709 2.97832,-1.5498047 0.60644,-0.035924 1.28027,0.00675 2.02149,0.1280273 0.58398,0.1213024 0.86923,0.2156383 0.85576,0.2830079 l -0.0539,1.1926757 0,1.212891 c -0.0359,0.193174 -0.0786,0.289756 -0.12802,0.289746 -0.13927,0.01798 -0.2089,10e-6 -0.20889,-0.05391 l -0.12803,-0.74795 c -0.20664,-0.5704957 -0.58623,-1.0039913 -1.13877,-1.300488 -0.32793,-0.1527217 -0.79512,-0.21112 -1.40156,-0.1751953 -0.92989,0.1707157 -1.46446,0.6963011 -1.60371,1.5767583 l 0,0.363867 c 0.0359,0.292002 0.10556,0.52335 0.20889,0.694043 l 0.36386,0.518847 0.56602,0.572754 c 1.2623,0.983797 1.96982,1.561043 2.12256,1.731739 1.57226,1.468951 2.07313,3.099613 1.50263,4.891992 -0.60645,1.450977 -1.83281,2.246094 -3.6791,2.385351 -0.49863,0.01797 -0.96357,0 -1.39482,-0.05391 -0.43125,-0.06738 -0.76817,-0.14375 -1.01074,-0.229101 -0.39532,-0.157227 -0.59297,-0.253808 -0.59297,-0.289746 l -0.10782,-0.202149 c -0.018,-0.655858 0.009,-1.554294 0.0809,-2.695312 0.018,-0.139255 0.0696,-0.242575 0.15498,-0.309961 z" style="font-size:13.80000019px;font-style:normal;font-weight:normal;text-align:start;text-anchor:start;fill:#fd0;fill-opacity:1;font-family:EPISODE I" id="path3077" />
      <path inkscape:connector-curvature="0" d="m 279.67744,8.0011473 c 0.018,0.05392 0.46269,0.1145643 1.33418,0.1819336 l 8.20723,0 0.98378,-0.1549805 c 0.14374,-0.017955 0.21562,0.00675 0.21563,0.074121 l -0.0539,2.5066406 c -0.0359,0.08986 -0.0809,0.143761 -0.13476,0.161719 l -0.16172,-0.05391 -0.0539,-0.107813 -0.0539,-0.559277 c -0.1213,-0.4087773 -0.57277,-0.6760622 -1.3544,-0.8018557 -0.78165,-0.049402 -1.71378,-0.074109 -2.79638,-0.074121 l 0,9.3459957 c 0.0314,1.087112 0.0741,1.781154 0.12802,2.082129 0.0719,0.26504 0.18867,0.433497 0.35039,0.505371 l 0.39756,0.107813 0.74795,0.02695 c 0.15722,0 0.2538,0.03369 0.28975,0.101074 0.018,0.125782 -0.036,0.206641 -0.16172,0.242578 -2.92891,-0.03594 -4.61573,-0.02695 -5.06045,0.02695 -0.1752,0 -0.28975,-0.04492 -0.34365,-0.134765 -0.018,-0.10332 0.009,-0.172949 0.0809,-0.208887 0.58398,0 0.92987,-0.07188 1.03769,-0.215625 0.21113,-0.143749 0.32568,-0.826561 0.34365,-2.048437 l 0,-9.8311527 -3.11308,0.074121 c -0.48067,0.053918 -0.79287,0.1527466 -0.93662,0.2964843 l -0.3167,0.4514649 -0.16172,0.5053705 c -0.1752,0.107824 -0.28076,0.09884 -0.3167,-0.02695 -0.0539,-0.103309 -0.002,-0.554773 0.15498,-1.3543941 0.12578,-0.6917837 0.22461,-1.0803575 0.29648,-1.1657226 0.0719,-0.085338 0.22237,-0.069615 0.45147,0.047168 z" style="font-size:13.80000019px;font-style:normal;font-weight:normal;text-align:start;text-anchor:start;fill:#fd0;fill-opacity:1;font-family:EPISODE I" id="path3079" />
      <path inkscape:connector-curvature="0" d="m 294.34182,13.611195 c -0.018,0.431257 0.009,1.001765 0.0809,1.711524 0.13926,0.902934 0.38183,1.700297 0.72774,2.39209 0.46718,0.902932 1.07362,1.596974 1.81933,2.082128 0.55253,0.309963 1.21962,0.534572 2.00127,0.673829 0.79511,0.04941 1.4622,-0.04717 2.00127,-0.289747 1.40155,-0.655857 2.19667,-2.145016 2.38535,-4.46748 0.1078,-2.147258 -0.28077,-3.854287 -1.16572,-5.121094 -0.83106,-1.1230348 -1.94962,-1.7811396 -3.35566,-1.9743162 -0.84903,-0.035925 -1.53185,0.067395 -2.04844,0.3099609 -1.52735,0.7277461 -2.34268,2.2887793 -2.446,4.6831053 z m 4.0834,-5.8488279 c 1.17695,-0.053893 2.25058,0.076381 3.2209,0.3908203 2.54706,0.9164185 3.91493,2.8053816 4.10361,5.6668946 0.0719,2.286529 -0.58624,4.157523 -1.97431,5.612988 -0.72775,0.691798 -1.48918,1.183692 -2.28428,1.475684 -0.6963,0.260547 -1.46896,0.417773 -2.31797,0.47168 -1.10509,0.03594 -2.1001,-0.103321 -2.98506,-0.417774 -2.49317,-0.98828 -3.88799,-2.980563 -4.18447,-5.976855 -0.0674,-2.079875 0.55703,-3.838565 1.87324,-5.2760746 1.19492,-1.1949091 2.71103,-1.8440295 4.54834,-1.9473633 z" style="font-size:13.80000019px;font-style:normal;font-weight:normal;text-align:start;text-anchor:start;fill:#fd0;fill-opacity:1;font-family:EPISODE I" id="path3081" />
      <path inkscape:connector-curvature="0" d="m 311.99529,8.6423248 0,5.7747072 c 0.0898,0.125788 0.43799,0.224616 1.04444,0.296484 0.59296,0.03594 1.03993,7e-6 1.34092,-0.107812 0.79061,-0.449212 1.23085,-1.336418 1.3207,-2.661621 0.018,-1.9675672 -0.75245,-3.1220584 -2.31123,-3.463477 -0.80411,-0.053894 -1.26905,1.27e-5 -1.39483,0.1617188 z m -3.59824,-1.0444336 3.24785,0.053906 2.17647,-0.053906 c 0.48066,0.017982 0.93661,0.071889 1.36787,0.1617187 0.91191,0.2515757 1.53857,0.6087042 1.87998,1.0713868 0.37284,0.4671993 0.60419,1.0489371 0.69404,1.7452153 0.018,0.96583 -0.18643,1.790145 -0.61318,2.472949 -0.28751,0.426765 -0.53907,0.747957 -0.75469,0.963574 l -0.90967,0.8625 2.78965,3.598242 c 0.73222,0.875979 1.25107,1.430763 1.55655,1.664356 l 0.29648,0.208887 c 0.41327,0.2875 0.96805,0.449219 1.66436,0.485156 0.10779,0.07187 0.11678,0.170703 0.0269,0.296484 l -0.29649,0.05391 c -0.91192,0.01797 -1.7879,0 -2.62793,-0.05391 -0.50313,-0.07187 -0.97706,-0.296484 -1.42177,-0.673828 -0.43126,-0.37285 -0.90743,-0.927635 -1.42852,-1.664355 l -2.00801,-2.924414 c -0.10781,-0.161714 -0.22461,-0.251557 -0.35039,-0.269532 -0.98379,-0.03593 -1.54756,-0.03593 -1.69131,0 -0.0539,2.380863 0,3.946389 0.16172,4.696582 0.14375,0.269532 0.2583,0.404298 0.34366,0.404297 l 1.26679,0.161719 c 0.0719,0.179688 0.0359,0.278516 -0.10781,0.296484 -1.9541,-0.03594 -3.6544,-0.03594 -5.10088,0 l -0.13476,-0.107812 c -0.018,-0.107812 0,-0.170703 0.0539,-0.188672 l 0.85576,-0.107812 c 0.21563,-0.01797 0.36836,-0.249316 0.45821,-0.694043 0.10781,-1.109569 0.14374,-1.835056 0.10781,-2.176465 l 0,-8.6991217 c -0.0179,-0.5031125 -0.10776,-0.8243036 -0.26948,-0.9635742 -0.26953,-0.1796744 -0.46719,-0.2605337 -0.59297,-0.2425782 l -0.74795,-0.026953 c -0.10781,-0.035924 -0.15273,-0.098815 -0.13477,-0.1886719 0.0719,-0.1257677 0.15274,-0.1796739 0.24258,-0.1617187 z" style="font-size:13.80000019px;font-style:normal;font-weight:normal;text-align:start;text-anchor:start;fill:#fd0;fill-opacity:1;font-family:EPISODE I" id="path3083" />
      <path inkscape:connector-curvature="0" d="m 319.13978,7.7013044 c 0.94336,0.05392 1.91367,0.071889 2.91094,0.053906 l 1.34092,-0.053906 0.12802,0.053906 0.027,0.053906 0,0.1280273 c -0.21114,0.1257945 -0.35264,0.1797007 -0.42451,0.1617188 -0.16173,0.089857 -0.22462,0.2246223 -0.18868,0.4042969 0.0719,0.2470828 0.21562,0.5682739 0.43125,0.9635742 l 2.64815,4.7033204 0.0269,0.107812 0.0472,0 0.64687,-1.280273 1.94737,-3.6117188 0.21562,-0.7749023 c 0.018,-0.1437373 -1e-5,-0.260534 -0.0539,-0.3503907 l -0.23586,-0.1886713 c -0.26954,-0.017956 -0.40431,-0.080846 -0.4043,-0.1886719 0.018,-0.1033069 0.0808,-0.1639513 0.18867,-0.1819336 1.17694,0.071889 2.41454,0.071889 3.71279,0 0.1078,1.35e-5 0.17968,0.035951 0.21563,0.1078125 l -0.0539,0.1819336 -0.10781,0.053906 c -0.1213,-0.035924 -0.35265,1.32e-5 -0.69404,0.1078125 -0.22912,0.1078255 -0.42453,0.2246223 -0.58623,0.3503907 -0.42677,0.2650515 -1.53185,1.9945423 -3.31524,5.1884773 -0.39532,0.714264 -0.61768,1.176959 -0.66709,1.388086 -0.12579,0.408794 -0.17969,1.183696 -0.16172,2.324707 -0.018,0.875979 0,1.716017 0.0539,2.520117 0.018,0.211134 0.0696,0.397559 0.15498,0.559277 0.0898,0.125782 0.21562,0.22461 0.37735,0.296485 l 1.20615,0.101074 c 0.10331,0.07188 0.13925,0.14375 0.10781,0.215625 l -0.13477,0.107812 c -2.017,-0.03594 -3.78242,-0.03594 -5.29628,0 l -0.13477,-0.107812 c -0.018,-0.107812 0,-0.170703 0.0539,-0.188672 l 0.85576,-0.107813 c 0.12577,-0.03144 0.2246,-0.101073 0.29648,-0.208886 0.2291,-0.161718 0.3167,-1.614939 0.26279,-4.359668 -0.0539,-0.480659 -0.1168,-0.819819 -0.18867,-1.017481 -0.0853,-0.287494 -0.25381,-0.644622 -0.50537,-1.071387 -1.33867,-2.317959 -2.36289,-4.002528 -3.07265,-5.0537108 -0.25157,-0.3189329 -0.50987,-0.5772334 -0.77491,-0.7749024 l -0.56601,-0.2425781 -0.39756,-0.026953 c -0.0719,-0.017955 -0.10781,-0.087584 -0.10781,-0.2088867 z" style="font-size:13.80000019px;font-style:normal;font-weight:normal;text-align:start;text-anchor:start;fill:#fd0;fill-opacity:1;font-family:EPISODE I" id="path3085" />
    </g>
    <g style="fill:#fd0;fill-opacity:1" id="g3234">
      <g style="fill:#fd0;fill-opacity:1" id="g3209">
        <path sodipodi:nodetypes="cccccsccccccscccccccc" inkscape:connector-curvature="0" id="path3145" d="m 318.75,412.5 -45.59375,7.53125 0,-0.0312 -27.0625,4.625 c -5.52267,1.47979 -11.09444,3.29779 -14.09375,6.6875 -3.61191,4.05433 -6.0625,7.42267 -6.0625,12.0625 0,5.64013 4.01447,10.48323 6.1875,12.65625 l 4.5625,4.4375 -43.59375,7.96875 -0.15625,18.40625 51.5625,-8.8125 c 5.97322,-1.01888 9.77695,-4.17271 13.5,-7.96875 3.66735,-3.81399 3.625,-7.98198 3.625,-12.125 0,-7.00465 -5.36629,-10.33505 -8.15625,-13.125 l -4.25,-4 27.81786,-4.73928 0.0884,36.17678 18.25,-3.125 0,-35.875 23.375,-4.5 z" style="font-size:32.54999924px;font-style:normal;font-weight:normal;text-align:start;text-anchor:start;fill:#fd0;fill-opacity:1;font-family:SF Distant Galaxy" />
        <path inkscape:connector-curvature="0" id="path3188" d="m 357.90625,406.5625 -29.84375,4.53125 -16.125,55.6875 19.5625,-3.90625 2.375,-7.90625 19,-3.28125 3.1875,7.28125 18.75,-3.65625 -16.90625,-48.75 z m -14.4375,17.3125 5.34375,14.40625 -10.03125,1.65625 4.6875,-16.0625 z" style="fill:#fd0;fill-opacity:1;stroke:none" />
        <path inkscape:connector-curvature="0" id="path3191" d="m 418.0625,396.28125 c -1.87015,-0.0245 -3.125,0.0937 -3.125,0.0937 l -36.125,6.625 0,52.125 20.875,-3.625 0.25,-14.75 11.875,8.875 5.75,2.625 6.625,-0.25 18.21875,-3.125 0.0625,0.0312 11.84375,-1.96875 0,-19.09375 -28.75,4.875 c -2.26584,0.19522 -1.43304,-0.35322 -0.6875,-0.96875 0,0 10,-3.5296 10,-19.3125 0,-10.61507 -11.20206,-12.08286 -16.8125,-12.15625 z m -6.875,15.34375 c 0,0 4.09249,0.0474 4.5,2.625 0.50873,3.21777 -4.1875,4.6875 -4.1875,4.6875 l -11.5625,2.3125 -0.0625,-7.3125 11.3125,-2.3125 z m 43.0625,10.0625 0.0625,0.0312 0,-0.0312 -0.0625,0 z" style="font-size:32.54999924px;font-style:normal;font-weight:normal;text-align:start;text-anchor:start;fill:#fd0;fill-opacity:1;font-family:SF Distant Galaxy" />
      </g>
      <g style="fill:#fd0;fill-opacity:1" id="g3229">
        <path sodipodi:nodetypes="cccsccccssccccccccccccscccccscccc" inkscape:connector-curvature="0" id="path3175" d="m 725.59375,343.46875 -32,5.15625 c -5.52267,1.47979 -11.09444,3.29779 -14.09375,6.6875 -3.61191,4.05433 -6.0625,7.42267 -6.0625,12.0625 0,5.64013 4.01447,10.48323 6.1875,12.65625 l 5.65625,4.03125 -31.15219,5.28661 c -2.26584,0.19522 -1.44024,-0.35858 -0.6947,-0.97411 0,0 10.00314,-3.5296 10.00314,-19.3125 0,-10.61507 -11.20206,-12.08286 -16.8125,-12.15625 C 644.75485,356.88179 643.5,357 643.5,357 l -36.125,6.625 0,52.125 20.875,-3.625 0.25,-14.75 11.875,8.875 5.75,2.625 6.625,-0.25 18.21875,-3.125 0.0625,0.0312 20.96875,-3.5 c 5.97322,-1.01888 9.77695,-4.17271 13.5,-7.96875 3.66735,-3.81399 3.625,-7.98198 3.625,-12.125 0,-7.00465 -5.36629,-10.33505 -8.15625,-13.125 l -4.25,-4 28.90625,-4.65625 z M 639.75,372.25 c 0,0 4.09249,0.0474 4.5,2.625 0.50873,3.21777 -4.1875,4.6875 -4.1875,4.6875 l -11.5625,2.3125 -0.0625,-7.3125 z" style="font-size:32.54999924px;font-style:normal;font-weight:normal;text-align:start;text-anchor:start;fill:#fd0;fill-opacity:1;font-family:SF Distant Galaxy" />
        <path style="fill:#fd0;fill-opacity:1;stroke:none" d="m 585.33666,367.91602 -29.84375,4.53125 -16.125,55.6875 19.5625,-3.90625 2.375,-7.90625 19,-3.28125 3.1875,7.28125 18.75,-3.65625 -16.90625,-48.75 z m -14.4375,17.3125 5.34375,14.40625 -10.03125,1.65625 4.6875,-16.0625 z" id="path3207" inkscape:connector-curvature="0" />
        <path sodipodi:nodetypes="cccccccccccccc" inkscape:connector-curvature="0" id="rect3219" d="m 545.65625,374.3125 -21.96875,3.46875 -2.79791,13.97783 -4.23334,-12.51818 -22.8438,3.66535 -4.24678,15.23427 -4.00322,-13.76552 -21.96875,3.46875 16.1875,49.46875 19.40625,-2.5 6,-19.90625 6.1875,17.46875 18.03125,-2.5 z" style="fill:#fd0;fill-opacity:1;fill-rule:evenodd;stroke:none" />
      </g>
    </g>
    <g style="fill:#fd0;fill-opacity:1" transform="matrix(0.15877264,-0.0196749,0,0.15877264,805.71049,372.82773)" id="g3271">
      <g id="text3273" style="font-size:32.54999924px;font-style:normal;font-weight:normal;text-align:start;text-anchor:start;fill:#fd0;fill-opacity:1;font-family:EPISODE I">
        <path inkscape:connector-curvature="0" id="path3285" style="font-size:32.54999924px;font-style:normal;font-weight:normal;text-align:start;text-anchor:start;fill:#fd0;fill-opacity:1;font-family:EPISODE I" d="m 259.9976,18.591145 c 0.0424,0.127181 1.09135,0.270223 3.14692,0.429126 l 19.35835,0 2.32046,-0.365551 c 0.33903,-0.04235 0.50856,0.01592 0.50859,0.174829 l -0.12715,5.912402 c -0.0848,0.21194 -0.19075,0.339088 -0.31787,0.381445 l -0.38144,-0.127148 -0.12715,-0.254297 -0.12715,-1.319165 c -0.28611,-0.964181 -1.35098,-1.594625 -3.19461,-1.891333 -1.84367,-0.116524 -4.04228,-0.1748 -6.59582,-0.174829 l 0,22.04436 c 0.0741,2.564164 0.17481,4.201199 0.30198,4.911108 0.16951,0.625148 0.445,1.022487 0.82646,1.192016 l 0.93772,0.254297 1.76419,0.06358 c 0.37082,0 0.59863,0.07947 0.68342,0.238403 0.0424,0.29668 -0.0848,0.487402 -0.38145,0.572168 -6.90841,-0.08477 -10.88709,-0.06357 -11.93606,0.06357 -0.41324,0 -0.68343,-0.105957 -0.81057,-0.317871 -0.0424,-0.243701 0.0212,-0.407934 0.19073,-0.4927 1.37743,1e-6 2.1933,-0.169531 2.4476,-0.508594 0.49799,-0.339061 0.76818,-1.949606 0.81057,-4.83164 l 0,-23.188696 -7.34282,0.174829 c -1.13374,0.127177 -1.87014,0.360283 -2.2092,0.699316 l -0.747,1.064868 -0.38144,1.192017 c -0.41324,0.254323 -0.66224,0.233131 -0.747,-0.06357 -0.12715,-0.243675 -0.005,-1.308542 0.36555,-3.194605 0.29668,-1.631707 0.52978,-2.548234 0.69932,-2.749585 0.16953,-0.201286 0.52448,-0.164201 1.06487,0.111255 z" />
        <path inkscape:connector-curvature="0" id="path3287" style="font-size:32.54999924px;font-style:normal;font-weight:normal;text-align:start;text-anchor:start;fill:#fd0;fill-opacity:1;font-family:EPISODE I" d="m 293.91444,18.7024 c 0.37084,-0.08473 0.64103,-0.0053 0.81057,0.238404 0.11655,0.04241 0.9748,1.811895 2.57476,5.308447 l 8.82092,18.802074 11.0937,-24.046947 c 0.25427,-0.328435 0.56154,-0.407903 0.92183,-0.238404 0.21188,0.243733 0.33903,0.508626 0.38144,0.794678 l 3.75088,26.574023 c 0.29664,1.727102 0.77345,2.797267 1.43042,3.210498 0.52975,0.243702 1.08072,0.407935 1.65293,0.4927 l 1.7324,0.111255 0.19072,0.190723 c -4e-5,0.286084 -0.16427,0.471508 -0.4927,0.556274 -6.57996,0 -9.86993,-0.185425 -9.8699,-0.556274 l 0,-0.301978 0.42913,-0.317871 c 0.1695,-0.116551 0.25426,-0.259593 0.2543,-0.429126 l 0,-1.223804 -2.41582,-18.134545 -0.17483,0 -9.18648,19.851049 c -0.45563,0.868848 -0.7841,1.239697 -0.9854,1.112549 -0.21193,0.08477 -0.83178,-0.900634 -1.85954,-2.956201 l -4.00518,-8.1375 -4.1959,-9.377197 -0.17483,-0.06357 -2.16152,17.2604 c -0.15894,1.070168 0.005,1.748292 0.4927,2.034375 0.41323,0.211915 1.34035,0.376148 2.78137,0.4927 0.20131,0.169532 0.25959,0.333765 0.17483,0.4927 l -0.36555,0.254297 c -3.41182,-0.08477 -6.47398,-0.08477 -9.18647,0 l -0.30198,-0.301978 c -0.0424,-0.211913 -0.005,-0.339061 0.11125,-0.381445 l 1.92312,-0.238403 c 0.7311,-0.328466 1.2238,-1.419822 1.4781,-3.274072 l 3.9416,-27.066723 c 0.20132,-0.487371 0.34436,-0.731072 0.42913,-0.731104 z" />
      </g>
      <g id="text3275" style="font-size:32.54999924px;font-style:normal;font-weight:normal;text-align:start;text-anchor:start;fill:#fd0;fill-opacity:1;font-family:EPISODE I" />
    </g>
  </g>
</svg>
