<?xml version="1.0" encoding="utf-8"?>
<!-- Generator: Adobe Illustrator 22.1.0, SVG Export Plug-In . SVG Version: 6.00 Build 0)  -->
<svg version="1.1" id="svg3686" xmlns:svg="http://www.w3.org/2000/svg"
	 xmlns="http://www.w3.org/2000/svg" xmlns:xlink="http://www.w3.org/1999/xlink" x="0px" y="0px" viewBox="0 0 1024 355"
	 style="enable-background:new 0 0 1024 355;" xml:space="preserve">
<style type="text/css">
	.st0{fill:#FFFFFF;}
</style>
<polygon id="polygon3621" class="st0" points="66.8,290.7 66.8,290.7 66.8,290.9 "/>
<path id="path3623" class="st0" d="M66.2,294.6c-0.1,0-0.2,0-0.2,0C66,294.6,66.1,294.6,66.2,294.6z"/>
<path id="path3625" class="st0" d="M18.8,19.5c-0.7,0-1.3,0.3-1.7,0.7c-0.5,0.5-0.7,1.1-0.7,1.7c0,0,0,6.4,0,6.4
	c0,1.1,0.7,2.1,1.7,2.3l0.9,0.2c1.9,0.5,4.9,1.3,7.2,3.9c2.8,3.2,3,7.2,3,7.2l0.6,172.2l0.1,25.6l-0.2,41.8c0,0.1,0,0.3,0,0.5
	c0,1.9-0.3,5.7-1.8,7.9c-3.5,5.1-8.1,5.6-8.4,5.7c-1.2,0.1-2.2,1.2-2.2,2.4l0,7.9c0,0.7,0.2,1.3,0.7,1.7c0.5,0.5,1.1,0.7,1.8,0.7
	l101.5-0.3c1.3,0,2.3-1,2.4-2.2l7-79.7c0.1-0.7-0.2-1.4-0.7-1.9c-0.4-0.5-1.1-0.8-1.8-0.8l-12.8,0c-1.2,0-2.3,0.9-2.4,2.1l-3.3,26.6
	c0,0.1-1.9,13.5-2.5,16.6c-0.6,2.8-1.8,5.7-2.2,6.7c-0.1,0.1-0.1,0.3-0.1,0.3c-1.2,2.9-3.3,5.6-6.4,8c-6.4,5.2-13.4,5.5-13.4,5.5
	c0,0-14.6-0.2-18.1-0.2c0-2.3-0.2-93.4-0.2-93.4S66,41.6,66,41.2c0-0.3,0.6-4.1,3.7-7c2.5-2.4,7.1-3.2,7.2-3.2c1.2-0.2,2-1.2,2-2.4
	V22c0-1.4-1.1-2.5-2.4-2.5L18.8,19.5 M28,33.2c-3.2-3.7-7.4-4.4-9.2-4.9l0-6.3h57.6v6.6c0,0-5.3,0.9-8.4,3.8c-4,3.8-4.5,8.6-4.5,8.6
	s0.6,153,0.6,154.8c0,1.8,0.1,94.6,0.1,94.6s0.1,0.8,0.4,1c0.5,0.3,1.3,0.2,1.3,0.2l19,0.2c0,0,7.7-0.2,14.9-6
	c5.3-4.3,6.8-8.3,7.2-9.2c0.4-0.9,1.8-4.1,2.5-7.3c0.6-3.2,2.5-16.8,2.5-16.8l3.4-26.6l12.8,0l-6.9,79.7L19.8,306l0-7.9
	c0,0,5.9-0.5,10.1-6.7c2.5-3.6,2.2-9.8,2.2-9.8s0.2-38.3,0.2-41.8c0-3.5-0.1-25.6-0.1-25.6L31.6,42C31.6,42,31.5,37.2,28,33.2z"/>
<path id="path3627" class="st0" d="M264,20.7c-6,2.6-13.4,9.1-16.2,14.5c-3.1,5.9-3.4,11.3-3.4,11.5c0,0,0.8,138.5,0.8,138.5
	c0,0.2-0.1,7.3,2.6,14.1c2.2,5.5,7.1,10.1,9.7,12.4c3.5,2.9,9.8,5.6,16.2,6.9c5.9,1.1,10.6,1,12.4,1l0.5,0l0.2,0
	c7.5,0.1,12.9-1.2,16.1-2.2c6.1-2,12.3-5.9,18.3-11.4c3.6-3.3,8.3-9.5,10.4-15.8c2.4-7.1,2.1-14.2,2.1-14.5v-39.9
	c0-1.3-1.1-2.4-2.5-2.4h-14.8c-0.6,0-1.3,0.3-1.7,0.7c-0.4,0.5-0.7,1.1-0.7,1.7l0.1,40.9c0,0,0,3.8-1,7.3c-0.9,3-2.8,5.8-3.7,6.8
	c-1.6,1.7-4.3,3.8-7,4.8c-3.6,1.4-7.7,1.4-7.7,1.4c-0.2,0-2.7,0.1-5.4-0.7c-2.1-0.7-4.6-2.4-6-3.7c-1.5-1.4-3.5-4.2-4.5-6.6
	c-1.2-2.8-1.3-5.6-1.3-5.7L277.2,53c0-6.4,2.2-11.5,6.4-15c2.6-2.2,12.2-7,21.1-0.4c8.6,6.3,9.2,19.7,9.2,19.9v20.7
	c0,1.4,1.1,2.5,2.4,2.5h14.6c0.7,0,1.3-0.3,1.7-0.7c0.5-0.5,0.7-1.1,0.7-1.7L333.3,22c0-1.3-1.1-2.4-2.5-2.4h-15
	c-1.3,0-2.4,1.1-2.4,2.5c0,0,0,1.6,0,2.8c-1.5-0.8-4.8-2.6-9-4.2c-5.7-2.2-12.1-3.8-17.5-4.3C275.4,15.2,264.5,20.5,264,20.7
	 M246.8,46.8c0,0,0.2-5,3.1-10.5c2.7-5,9.7-11.1,15.1-13.5c0,0,10.6-5.2,21.6-4.1c5.5,0.5,11.8,2.2,16.8,4.1c5.1,2,8.9,4.3,9.4,4.5
	c0.5,0.3,1.6,0.6,2.2,0.3c0.6-0.4,0.6-1.4,0.6-1.4V22h15l0.1,56.1h-14.6V57.3c0,0-0.5-14.6-10.2-21.7c-9.7-7.1-20.5-2.5-24.1,0.5
	c-4.9,4-7.2,10-7.2,16.9c0,6.9,0.3,127.4,0.3,127.4s0.1,3.2,1.5,6.5c1.2,2.9,3.5,5.9,5.1,7.4c1.5,1.4,4.3,3.4,6.9,4.3
	c3.2,1.1,6.2,0.9,6.2,0.9s4.5-0.1,8.6-1.6c3.5-1.3,6.5-4,7.9-5.4c1.4-1.4,3.4-4.5,4.3-7.8c1.2-3.9,1.1-8,1.1-8l-0.1-40.9h14.8v40
	c0,0,0.3,6.9-2,13.6c-2.1,6.1-6.6,11.9-9.7,14.8c-3.4,3.1-9.8,8.4-17.4,10.9c-7,2.3-14.4,2.1-15.5,2.1c-1.1,0-6,0.3-12.4-1
	c-5.8-1.1-11.9-3.6-15.1-6.3c-2.9-2.5-7.1-6.7-9.1-11.4c-2.6-6.4-2.4-13.2-2.4-13.2L246.8,46.8z"/>
<path id="path3629" class="st0" d="M261.6,15.3C261.5,15.4,261.5,15.4,261.6,15.3L261.6,15.3c-0.1,0-0.1,0.1-0.1,0.1c0,0,0,0,0,0
	c-7.3,3.3-15.4,10.5-18.8,17c-3.7,7-4,13.4-4.1,14.1c0,0,0,0.2,0,0.2l0.9,138.5c0,0,0,0.1,0,0.3c0,1.5,0.2,8.9,3.1,16
	c2.7,6.6,8.3,12,11.4,14.7c5.1,4.3,13.1,7,18.9,8.1c6.5,1.3,11.7,1.2,13.6,1.1c0,0,0.4,0,0.4,0l0.1,0c8.3,0.1,14.4-1.3,17.9-2.5
	c6.9-2.3,13.8-6.5,20.4-12.7c3.9-3.5,9.3-10.4,12-18.2c2.2-6.5,2.5-13,2.5-15.5l0-0.9v-45.7c0-1.4-1.1-2.5-2.5-2.5h-26.5
	c-0.6,0-1.3,0.3-1.7,0.7c-0.5,0.5-0.7,1.1-0.7,1.7l0.1,46.8c0,0,0,3-0.8,5.7c-0.6,2-1.9,3.9-2.3,4.3c-1.2,1.3-3.2,2.8-4.8,3.4
	c-2.6,1-5.7,1.1-5.8,1.1c-0.1,0-0.3,0-0.3,0c-0.1,0-1.7,0-3.2-0.5c-1.2-0.4-2.9-1.5-3.8-2.4c-0.9-0.9-2.5-2.9-3.1-4.6
	c-0.8-1.8-0.9-3.7-0.9-3.7c0,0,0,0,0,0c0-1.8-0.3-127.1-0.3-127.1c0-4.6,1.4-8.1,4.2-10.4c1.3-1.1,7.9-4.6,13.9-0.2
	c6.2,4.5,6.8,15.2,6.8,15.3V84c0,1.3,1.1,2.4,2.5,2.4h26.4c0.7,0,1.3-0.3,1.7-0.7c0.5-0.5,0.7-1.1,0.7-1.7l-0.2-67.9
	c0-1.3-1.1-2.5-2.4-2.5h-26.8c-1.1,0-2.1,0.8-2.3,1.9c-0.4-0.2-1-0.4-1-0.4c-6.2-2.4-13.1-4.1-19.1-4.7
	C274.7,9.3,262.7,14.8,261.6,15.3 M287.2,12.9c5.7,0.5,12.4,2.2,18.4,4.5c1.6,0.6,3,1.2,4.3,1.9c0-1.6,0-3.1,0-3.1h26.8l0.1,67.9
	h-26.4c0,0,0-26.2,0-26.5c0-0.4-0.7-11.9-7.8-17.2c-7.2-5.3-15.2-1.1-16.9,0.3c-3.4,2.8-5.1,7-5.1,12.3c0,0,0.3,126.9,0.3,127.2
	c0,0.2,0.2,2.3,1,4.4c0.8,2.1,2.7,4.4,3.7,5.4c1.1,1,3.1,2.4,4.7,2.9c2,0.7,4,0.6,4.1,0.6l0.3,0c0,0,3.5-0.1,6.6-1.2
	c2.1-0.8,4.4-2.6,5.7-4c0.7-0.7,2.2-3,2.9-5.4c0.9-3,0.9-6.3,0.9-6.3l-0.1-46.8h26.5c0,0,0,45.6,0,45.8c0,0.2,0,0.4,0,0.8
	c0,2.4-0.2,8.6-2.3,14.7c-2.5,7.3-7.7,13.9-11.3,17.2c-6.4,5.9-13,10-19.5,12.1c-3.4,1.1-9.2,2.5-17.2,2.4h-0.2l-0.4,0
	c-1.9,0-6.8,0.1-13.1-1.1c-5.5-1.1-13.1-3.6-17.8-7.6c-2.9-2.5-8.2-7.5-10.7-13.7c-3-7.4-2.9-15.2-2.9-15.4L241,46.7v-0.1
	c0-0.6,0.3-6.5,3.8-13c3.2-6.1,11.1-13.2,18-16.1l-0.3,0.1C263,17.4,274.7,11.7,287.2,12.9z"/>
<path id="path3631" class="st0" d="M392.2,49.4l-4.6,0c-1.2,0-2.2,0.9-2.4,2.1l-10.5,68.8c-0.1,0.7,0.1,1.4,0.6,2
	c0.5,0.5,1.2,0.8,1.9,0.8h26.6c0.7,0,1.4-0.3,1.9-0.9c0.5-0.5,0.7-1.3,0.6-2l-11.5-68.9C394.4,50.3,393.4,49.4,392.2,49.4
	 M387.6,51.9l4.6,0l11.5,68.9h-26.6L387.6,51.9z"/>
<path id="path3633" class="st0" d="M362.4,19.4c-1.3,0-2.4,1.1-2.5,2.4l0,6.7c0,1.2,0.8,2.2,2,2.4c0,0,2.5,0.5,4.7,1.7
	c1.4,0.8,2.6,2.1,3.3,3c0.8,1.2,1.6,3.1,1.8,4.9c0.3,2.5-0.2,5-0.2,5c0,0.1-20,130.1-20,130.1c-0.5,2.8-1.5,7.3-2.2,8.6
	c-0.7,1.2-1.7,3-3,4.5c-1.7,1.9-3.6,3.5-3.7,3.5c-0.6,0.5-0.9,1.2-0.9,1.9v6c0,0.7,0.3,1.4,0.9,1.9c0.6,0.5,1.3,0.7,2,0.5l32.4-6.5
	c1.1-0.2,2-1.2,2-2.4v-6.7c0-0.7-0.3-1.3-0.8-1.8c-0.5-0.5-1.1-0.7-1.8-0.7c0,0-1.5,0.1-3-0.3c-1.4-0.4-2.8-1.3-3.3-1.7
	c-0.4-0.4-1.2-1.5-1.4-2.6c-0.1-0.5-0.2-1-0.2-1.4c0-0.6,0.1-1.1,0.1-1.1c0-0.1,5.5-34.7,6.4-40.4c1.7,0,30.2,0,30.6,0
	c0.9,4.9,5.4,30.8,5.4,30.8c0,0,0.3,1.7,0.3,3.5c0,0.3,0,0.6,0,0.9c-0.1,1.4-0.6,2.8-0.9,3.3c-0.3,0.6-1.5,2.1-2.7,2.9
	c-1.5,1.1-3.2,1.6-3.2,1.7c-1,0.3-1.7,1.3-1.7,2.3v6.7c0,0.7,0.3,1.4,0.8,1.8c0.5,0.5,1.2,0.7,1.9,0.6l45.2-4.9
	c1.3-0.1,2.2-1.2,2.2-2.4v-8.1c0-1-0.8-2-1.7-2.3l-2.3-0.9c-1.3-0.7-2.4-1.6-2.8-2c-0.3-0.4-1.3-1.5-1.9-2.7
	c-0.7-1.6-1.1-3.4-1.1-3.4c0,0-18.7-114.9-18.7-114.9c0-0.1-0.9-5.2-0.9-5.2l-0.3-3.5c0-1,0-2.2,0.9-4.2c0.5-1.2,2-2.4,2.5-2.9
	c0.6-0.5,2.3-1.6,4.2-2.1c1.9-0.5,4-0.4,4-0.4c0.7,0,1.3-0.2,1.8-0.7c0.5-0.5,0.8-1.1,0.8-1.8v-7.1c0-1.4-1.1-2.5-2.4-2.5H362.4
	 M362.4,21.8H435v7.1c0,0-2.5-0.2-4.8,0.4c-2.2,0.6-4.3,1.9-5.2,2.6c-0.7,0.6-2.4,2-3.1,3.8c-1.1,2.4-1.1,4-1.1,5.2
	c0,0.6,0,1.7,0.3,3.9c0.2,1.7,0.9,5.3,0.9,5.3L440.8,165c0,0,0.4,2.1,1.3,3.9c0.7,1.5,1.8,2.7,2.3,3.3c0.7,0.7,2,1.8,3.5,2.5
	c1.3,0.7,2.7,1.1,2.7,1.1v8.1l-45.2,4.9v-6.7c0,0,2-0.6,3.9-2c1.5-1.1,2.9-2.9,3.4-3.7c0.4-0.8,1.1-2.5,1.2-4.3
	c0.2-2.4-0.3-5.1-0.3-5.1l-5.5-31.5c0,0-0.1-0.6-0.7-1c-0.6-0.4-1.3-0.3-1.3-0.3h-31.7c0,0-0.6,0-1,0.3c-0.4,0.3-0.5,0.9-0.5,0.9
	l-6.5,41.3c0,0-0.3,1.8,0.1,3.5c0.4,1.6,1.5,3.2,2.1,3.8c0.7,0.7,2.5,1.8,4.3,2.3c1.9,0.5,3.8,0.4,3.8,0.4v6.7l-32.4,6.5v-6
	c0,0,2.1-1.7,4-3.8c1.5-1.8,2.7-3.9,3.3-4.9c1.2-2.2,2.6-9.4,2.6-9.4l20-130c0,0,0.6-2.8,0.2-5.8c-0.3-2.2-1.3-4.5-2.2-5.9
	c-0.9-1.3-2.4-2.9-4.1-3.8c-2.6-1.4-5.4-1.9-5.4-1.9L362.4,21.8z"/>
<path id="path3635" class="st0" d="M435,13.5h-78.4c-1.3,0-2.4,1.1-2.4,2.4L354,33.4c0,1.2,0.8,2.2,2,2.4l4.8,0.9
	c0.3,0.1,1.8,0.4,2.9,1.1c0.4,0.2,1,0.8,1.2,1.1c0.4,0.6,0.8,1.7,0.9,2.4l0.1,1.1l-0.2,2.1c0,0-0.1,0.3-0.1,0.3c0,0.1-20,130-20,130
	c-0.6,3-1.4,6.1-1.7,6.7c-0.4,0.8-1.3,2.4-2.3,3.4c-1.2,1.4-2.8,2.7-2.8,2.7c0,0-2.2,1.8-2.2,1.8c-0.6,0.5-0.9,1.2-0.9,1.9v2.8v13.2
	c0,0.7,0.3,1.4,0.9,1.9c0.6,0.5,1.3,0.6,2,0.5l44.2-8.8c1.1-0.2,2-1.2,2-2.4v-17.6c0-0.7-0.3-1.3-0.7-1.8c-0.5-0.5-1.1-0.7-1.8-0.7
	l-6.1,0.2l-1.3-0.1c-0.1,0-0.3-0.1-0.4-0.2c0,0,0-0.1,0-0.1c0,0,3.7-23.3,3.7-23.3s1.4-9.2,1.9-12.2c3.2,0,17.5,0,20.6,0
	c0.6,3.5,4.5,25.9,4.5,25.9l0.2,2.5l0,0.5c0,0.2-0.1,0.6-0.2,0.8c-0.2,0.3-0.7,0.8-1,1.1c-0.6,0.4-1.4,0.8-1.6,0.8l-4,1.3
	c-1,0.3-1.6,1.3-1.7,2.3l-0.1,4.3v13.2c0,0.7,0.3,1.4,0.8,1.8c0.5,0.5,1.2,0.7,1.9,0.6l56.3-6.3c1.3-0.1,1.3-1.2,1.3-2.4l0.1-17.5
	c0-1-0.6-1.9-1.6-2.3l-2.7-1.5c0,0-1.1-0.4-1.5-0.6c-0.1-0.1-1.2-0.8-1.2-0.8c0,0-0.8-1.1-0.8-1.1c0,0-0.7-2.2-0.7-2.2
	c0,0-18.7-114.7-18.7-114.7c0,0-0.7-4.5-0.8-5c0-0.2-0.2-2.5-0.2-2.8c0-0.6,0-0.9,0.3-1.6c0.1-0.1,1-1,1-1c0.2-0.1,1.1-0.7,1.8-0.8
	c0.8-0.2,1.8-0.2,2.2-0.2l6.2,0.4c0.7,0,1.3-0.2,1.8-0.7c0.5-0.5,0.8-1.1,0.8-1.8l0-6.2v-13c0-1.4-1.1-2.4-2.4-2.4L435,13.5
	 M440.9,15.9v13l0,6.2l-6.2-0.4c-0.5,0-1.9,0-3,0.3c-1.2,0.3-2.5,1.1-2.8,1.4c-1.2,1-1.5,1.5-1.6,1.7c-0.6,1.4-0.6,2-0.6,2.8l0.2,3
	c0,0,0.8,5,0.9,5.1c0,0,18.6,114.4,18.7,114.8c0.1,0.5,0.4,1.7,0.9,2.7c0.1,0.3,0.5,0.9,1.3,1.8c0.2,0.2,1,0.8,1.8,1.3l1.7,0.7
	l4.2,1.7v17.4l-57,6.2v-13.2l0.1-4.2l4-1.3c0.3-0.1,1.4-0.5,2.2-1.2c0.7-0.5,1.5-1.4,1.7-1.8c0.1-0.3,0.5-1.1,0.5-1.8
	c0-0.2,0-0.5,0-0.7c0-1.2-0.2-2.5-0.2-2.9c0,0-3.9-22.4-4.9-28c-4.4,0-19.6,0-24.8,0c-1.6,10.2-5.9,37.5-5.9,37.5c0,0.1,0,0.3,0,0.6
	c0,0.2,0,0.4,0.1,0.6c0.1,0.2,0.3,0.7,0.5,0.9c0.3,0.3,1.1,0.7,1.7,0.9c0.8,0.2,1.7,0.2,2,0.2l6.1-0.2v17.6l-44.2,8.8v-13.1l0-2.9
	l2.2-1.8c0,0,1.7-1.4,3.2-3c1-1.2,2-2.9,2.6-3.9c0.4-0.9,1.3-4.4,1.9-7.4l19.9-130l0-0.3c0,0,0.2-1.1,0.2-2.5c0-0.4,0-0.9-0.1-1.4
	c-0.1-1.2-0.8-2.6-1.3-3.4c-0.4-0.6-1.2-1.4-2-1.9c-1.4-0.8-3.1-1.2-3.7-1.3l-4.8-0.9l0.1-17.5H435L440.9,15.9L440.9,15.9
	L440.9,15.9z"/>
<path id="path3637" class="st0" d="M479.6,18.8c-3.9,1.6-6.8,3.9-9.8,6.6c-7,6.2-7.7,15.6-7.8,16v34c0,0.2,0,3.8,0.9,7.8
	c0.6,2.9,2,6,3,7.9c1.2,2.2,3.4,5,5.5,7.1c2.3,2.3,4.7,3.9,4.8,3.9c0.1,0.1,25.4,16.1,25.4,16.1c0.1,0,2.6,1.6,4.5,3.2
	c1.3,1,2.1,2.1,2.5,2.5l0.1,0.1c0.4,0.7,1.3,1.9,1.7,3.2c0.7,2.4,0.7,5.3,0.7,5.3v15.3c0,0.1,0.1,4.2-0.9,7.8
	c-0.5,1.7-1.4,3.2-2.2,4c-2,2.3-4.1,4-6.1,4.8c-2.9,1.2-6.1,1.3-6.7,1.2l-0.5,0c-1,0-3,0.1-5-0.6c-2.4-0.8-5.2-2.6-7.2-4.7
	c-1.4-1.5-2.7-3.9-3.4-6.2c-0.8-2.7-0.9-5.1-0.9-5.1l-0.1-19c0-1.4-1.1-2.4-2.4-2.4h-11.2c-1.4,0-2.5,1.1-2.5,2.4l-0.1,52.6
	c0,0.6,0.3,1.3,0.7,1.7c0.5,0.5,1.1,0.7,1.7,0.7h11.6c0.7,0,1.3-0.3,1.7-0.7c0.5-0.5,0.7-1.1,0.7-1.7c0,0-0.1-4.6-0.1-6.7
	c2.1,1.3,8,4.8,11.9,6.3c4.8,1.8,11.3,3,17.5,3c5.6,0,10.6-0.5,16.5-3.2c4.2-1.9,8.2-5,12-9.4c6.3-7.1,6.9-16.8,6.9-17.2l0-28.8
	c0-0.2,0-3.7-0.9-7.6c-0.7-3.1-2.1-6.3-3.1-8.2c-1-1.9-2.9-4.7-5.1-6.9c-2.9-2.9-6.2-5.2-6.4-5.3c-0.1-0.1-24.9-15.5-24.9-15.5
	c-2.7-1.7-6-4.3-6.7-5.2c-0.5-0.8-1.9-2.7-2.5-4.4c-0.8-2.3-0.9-4.6-0.9-4.6V49.4c0,0,0-2.5,1.2-5.2c0.6-1.3,1.8-2.8,3.2-4.1
	c2.5-2.4,6.6-4,10.1-4c3.8,0,10.9,2.3,14.3,7.2c1.3,2,2.7,4,3.3,5.9c1.5,4.8,1.3,9.6,1.3,9.6l0,8.3c0,1.4,1.1,2.4,2.5,2.4h12
	c1.3,0,2.4-1.1,2.4-2.4V21.9c0-1.4-1.1-2.5-2.4-2.5h-12.4c-1.3,0-2.4,1.1-2.4,2.5c0,0,0,3,0,5.4c-2.5-1.8-6.8-4.8-9.8-6.3
	c-4-1.9-7.7-3.1-11-3.8c-5.3-1.1-10.5-1.2-10.8-1.2C492.2,15.9,485.5,16.4,479.6,18.8 M464.4,130.2h11.2l0.1,19c0,0,0,2.7,1,5.8
	c0.8,2.5,2.3,5.3,4,7.1c2.3,2.4,5.3,4.5,8.2,5.4c2.8,0.9,5.5,0.7,6.2,0.7c0.8,0,4.4,0,7.6-1.4c2.7-1.1,5.1-3.3,7.1-5.5
	c1-1.2,2.1-3,2.7-5c1.1-4,1-8.5,1-8.5v-15.3c0,0-0.1-3.2-0.8-5.9c-0.5-1.8-1.6-3.4-2.1-4.1c-0.5-0.7-1.5-1.9-2.9-3.1
	c-2.1-1.7-4.8-3.3-4.8-3.3l-25.3-16.1c0,0-2.2-1.5-4.4-3.7c-2.1-2-4.1-4.7-5.1-6.5c-0.9-1.6-2.2-4.5-2.8-7.3
	c-0.8-3.7-0.8-7.3-0.8-7.3V41.5c0,0,0.6-8.7,6.9-14.3c2.8-2.4,5.5-4.8,9.1-6.2c5.6-2.2,11.8-2.7,13.6-2.6c0,0,5.2,0.1,10.3,1.1
	c4.3,0.9,8.5,2.8,10.4,3.7c4.3,2,11.4,7.6,11.4,7.6s1,0.5,1.5,0.3c0.5-0.2,0.4-1.2,0.4-1.2v-8h12.4v45.3h-11.9V59
	c0,0,0.3-5.2-1.4-10.5c-0.7-2.3-2.2-4.5-3.6-6.6c-3.9-5.7-11.7-8.3-16.3-8.3c-4.1,0-8.8,1.8-11.8,4.6c-1.6,1.5-3,3.2-3.8,4.9
	c-1.5,3.2-1.5,6.2-1.5,6.2v19.7c0,0,0.1,2.6,1,5.4c0.7,2,2.2,4.2,2.8,5c1.4,1.9,7.4,5.9,7.4,5.9l24.8,15.5c0,0,3.2,2.2,6,5
	c2.1,2.1,3.8,4.8,4.6,6.3c0.9,1.6,2.2,4.7,2.9,7.6c0.8,3.7,0.8,7.1,0.8,7.1v28.6c0,0-0.5,9.2-6.3,15.7c-3,3.4-6.8,6.7-11.2,8.8
	c-5.1,2.4-9.6,3-15.4,3c-5.9,0-12.1-1-16.6-2.8c-4.5-1.8-12.3-6.6-12.3-6.6s-1.3-1-2.1-0.7c-0.8,0.3-0.8,1.7-0.8,1.7l0.1,8.2h-11.6
	L464.4,130.2z"/>
<path id="path3639" class="st0" d="M477.4,13.3c-4.8,1.9-8.2,4.7-11.5,7.7c-8.6,7.6-9.7,18.7-9.7,19.9l0,0.2v34.2c0,0.7,0,4.7,1,9.1
	c1,4.5,3,8.4,3.6,9.5c1.5,2.7,4,6,6.6,8.5c2.6,2.5,5.1,4.3,5.6,4.6c0,0,0.2,0.1,0.2,0.1c0,0,25.4,16.1,25.4,16.1c0,0,4,2.8,4,2.8
	l1.3,1.3l0.1,0.2c0.6,0.9,0.8,1.3,0.8,1.4c0.4,1.3,0.5,3.2,0.5,3.9V148c0,0.6,0,3.6-0.7,6.1c-0.2,0.7-0.6,1.4-1,1.8
	c-1.4,1.6-2.8,2.8-4,3.3c-1.3,0.5-3.1,0.8-4.3,0.8c-0.1,0-0.6,0-0.6,0c-0.7,0-2,0-3.2-0.3c-1.5-0.5-3.4-1.7-4.7-3.1
	c-0.8-0.8-1.7-2.5-2.1-3.9c-0.6-1.8-0.6-3.4-0.6-3.5l-0.2-24.8c0-1.4-1.1-2.4-2.5-2.4h-22.9c-1.4,0-2.5,1.1-2.5,2.4l-0.1,64.3
	c0,0.6,0.3,1.3,0.7,1.7c0.5,0.5,1.1,0.7,1.7,0.7h23.4c0.6,0,1.3-0.3,1.7-0.7c0.4-0.5,0.7-1.1,0.7-1.7c0,0,0-1.3,0-2.5
	c1.4,0.7,2.7,1.3,3.7,1.7c5.5,2.1,12.7,3.3,19.6,3.3c7.6,0,13-1.1,18.9-3.7c4.9-2.2,9.6-5.9,14-10.8c7.5-8.5,8.3-19.5,8.4-20.8
	c0-0.1,0-0.3,0-0.3v-28.8c0-0.4,0-4.4-1-8.9c-0.8-3.6-2.4-7.4-3.6-9.7c-0.6-1.1-2.7-4.9-6.1-8.3c-3.3-3.3-7.1-5.9-7.3-6
	c0,0-0.2-0.1-0.2-0.1c0,0-24.9-15.5-24.9-15.5c-2.3-1.5-4.6-3.3-5.1-3.8c-1.1-1.6-1.5-2.4-1.6-2.7c-0.5-1.4-0.6-2.8-0.6-2.9l0-19.5
	c0,0,0.1-1.3,0.7-2.7c0.2-0.5,0.9-1.4,1.9-2.3c1.4-1.3,4.1-2.4,6.1-2.4c2.6,0,7.5,1.8,9.4,4.7c1.1,1.6,2.2,3.3,2.6,4.4
	c1.2,3.7,1,7.5,1,7.5c0,0,0,0.3,0,0.3v14.2c0,1.4,1.1,2.5,2.4,2.5h23.7c1.4,0,2.4-1.1,2.4-2.5V16c0-1.4-1.1-2.5-2.4-2.5h-24.1
	c-1.4,0-2.5,1.1-2.5,2.5c0,0,0,0.3,0,0.4c-0.5-0.3-1-0.6-1.5-0.8c-4.4-2-8.5-3.5-12.2-4.3c-5.8-1.3-11.7-1.3-11.9-1.3
	C491.9,10,484.3,10.5,477.4,13.3 M494.2,12.5c0.2,0,5.8,0.1,11.4,1.3c3.5,0.8,7.5,2.1,11.7,4.1c1.5,0.7,3.3,1.8,5,2.8
	c0-1.5,0-4.7,0-4.7h24.2v57h-23.7V58.8l0-0.2c0,0,0.2-4.2-1.1-8.4c-0.5-1.5-1.7-3.2-2.9-5c-2.6-3.7-8.3-5.7-11.4-5.7
	c-2.6,0-5.9,1.3-7.8,3.1c-1.1,1.1-2.1,2.2-2.5,3.1c-0.9,1.9-0.9,3.7-0.9,3.7c0,0,0,19.3,0,19.6c0,0.1,0.1,1.9,0.7,3.6
	c0.4,1.2,1.6,2.8,2,3.5c0.6,0.7,3.4,2.8,5.7,4.4l24.8,15.4l0.2,0.1c0.1,0.1,3.7,2.5,6.9,5.7c3.1,3.1,5.1,6.7,5.7,7.7
	c1.2,2.2,2.6,5.7,3.4,9.1c0.9,4.2,0.9,7.9,0.9,8.4v28.8l0,0.2c-0.1,1.1-0.8,11.4-7.8,19.3c-4.2,4.7-8.6,8.1-13.2,10.2
	c-5.5,2.5-10.7,3.5-17.9,3.5c-6.7,0-13.5-1.1-18.8-3.2c-2.1-0.8-4.8-2.2-7.1-3.5c0,0.1,0.1,6.5,0.1,6.5h-23.4l0.1-64.3h22.9
	c0,0,0.2,24.8,0.2,24.8l0,0c0,0,0.1,2,0.7,4.2c0.6,1.8,1.6,3.8,2.7,4.8c1.6,1.7,3.8,3.2,5.7,3.8c1.5,0.5,3.1,0.4,3.9,0.4h0.6
	c1.4,0,3.6-0.2,5.3-1c1.5-0.6,3.2-2,4.9-3.9c0.5-0.6,1.2-1.7,1.5-2.7c0.8-2.8,0.8-6.2,0.8-6.8c0-0.1,0-15.3,0-15.3
	c0-0.7-0.1-2.8-0.6-4.5c-0.2-0.7-0.8-1.7-1.2-2.2l-0.1-0.2c-0.1-0.2-0.8-1-1.8-1.8c-1.8-1.4-4.1-2.9-4.2-2.9l-25.3-16.1l-0.1-0.1
	c-0.3-0.2-2.7-1.9-5.3-4.3c-2.4-2.4-4.8-5.5-6.1-7.9c-0.6-1-2.4-4.7-3.4-8.8c-0.9-4.2-0.9-8-0.9-8.5v-34l0-0.2
	c0.1-1.1,1-11.3,8.9-18.3c3.2-2.8,6.4-5.5,10.8-7.2C484.8,13,492,12.5,494.2,12.5z"/>
<path id="path3641" class="st0" d="M558.6,19.4c-0.7,0-1.3,0.3-1.8,0.7c-0.4,0.5-0.7,1.1-0.7,1.7l0,7c0,1.2,0.9,2.2,2,2.4
	c0,0,2,0.4,3.8,1.2c1.7,0.8,3.3,2.1,3.9,2.7c0.4,0.4,1.6,1.8,2.2,3.4c0.7,2,0.8,4.2,0.8,4.2c0,0,0.3,118.1,0.3,118.1
	c0,0-0.1,2-0.6,4c-0.5,1.6-1.4,3.2-1.9,3.8c-0.6,0.7-2.2,2.2-3.8,3c-1.9,0.9-4,1.3-4,1.3c-1.2,0.2-2.1,1.2-2.1,2.4v7.4
	c0,1.2,1,2.3,2.2,2.4c0.2,0,17.5,1.7,26.5,2.3c3.4,0.2,5.6,0.5,18.3,1.8l6.9,0.8c0.7,0.1,1.4-0.1,1.9-0.6c0.5-0.5,0.8-1.1,0.8-1.8
	v-7c0-1.2-0.9-2.3-2.1-2.4c0,0-1.5-0.2-3.1-0.9c-1.8-0.8-3.8-2.1-4.4-2.8c-0.7-0.7-2-2.4-2.5-3.7c-0.8-1.9-0.8-3.7-0.8-3.7
	c0,0-0.1-49-0.2-55.8c1.7,0,13.2,0,13.2,0c0.1,0,1.7,0,3.3,0.7c0.9,0.4,2.1,1.4,3.6,2.8c0.6,0.6,1.5,2,2.2,3.5
	c0.8,1.9,1.2,3.9,1.2,4c0.2,1.1,1.2,1.9,2.4,1.9h10.7c1.4,0,2.4-1.1,2.4-2.4V84.1c0-1.4-1.1-2.4-2.4-2.4h-10.9
	c-1.2,0-2.3,0.9-2.4,2.1c0,0-0.2,1.7-1,3.3c-0.7,1.6-2,3.3-2.5,3.9c-0.4,0.4-1.7,1.8-3.1,2.4c-1.4,0.6-3.1,0.8-3.1,0.8
	c0,0-12.4,0-13.7,0c0-1.9-0.1-54.3-0.1-55.9c3.6,0,17.1,0,17.1,0l0,0c0,0,3,0.1,5.8,1c2,0.7,4,2.1,4.9,2.9c1,0.9,2.8,3,3.7,4.9
	c1.1,2.4,1.2,4.7,1.2,4.7v10.5c0,1.4,1.1,2.5,2.4,2.5h13c1.4,0,2.4-1.1,2.4-2.5V21.8c0-1.4-1.1-2.5-2.4-2.5L558.6,19.4 M558.6,21.8
	h89.4v40.4H635V51.6c0,0-0.1-2.7-1.4-5.6c-1-2.3-3.1-4.7-4.3-5.7c-1.1-1-3.4-2.6-5.7-3.3c-3.3-1.1-6.6-1.1-6.6-1.1h-17.9
	c0,0-0.9-0.1-1.4,0.3c-0.4,0.4-0.3,1.3-0.3,1.3l0.1,57.7c0,0-0.1,0.9,0.3,1.2c0.4,0.3,1.4,0.3,1.4,0.3h14.6c0,0,2.1-0.1,4-1
	c1.7-0.8,3.1-2.2,3.8-2.9c0.7-0.7,2.1-2.7,2.9-4.6c0.9-2,1.2-4,1.2-4h10.9v37.8h-10.7c0,0-0.4-2.2-1.4-4.4c-0.7-1.8-1.9-3.5-2.7-4.3
	c-0.8-0.8-2.6-2.5-4.3-3.3c-2.2-1-4.3-0.9-4.3-0.9l-14.2,0c0,0-0.6-0.2-1.1,0.3c-0.5,0.6-0.4,1.3-0.4,1.3l0.2,56.7
	c0,0,0.1,2.2,1,4.5c0.7,1.8,2.3,3.8,3,4.5c0.9,0.9,3.1,2.4,5.2,3.3c1.9,0.8,3.7,1.1,3.7,1.1v7c-19.1-2.1-21.4-2.4-25.3-2.6
	c-9.1-0.6-26.4-2.3-26.4-2.3v-7.4c0,0,2.4-0.4,4.7-1.5c2-1,3.8-2.7,4.6-3.6c0.8-0.9,1.9-2.8,2.5-4.7c0.7-2.3,0.7-4.7,0.7-4.7
	l-0.3-118.1c0,0-0.1-2.6-0.9-5c-0.7-1.8-2-3.5-2.7-4.3c-0.8-0.9-2.7-2.3-4.6-3.2c-2.2-1-4.4-1.4-4.4-1.4L558.6,21.8z"/>
<path id="path3643" class="st0" d="M647.9,13.5h-95.3c-0.6,0-1.3,0.3-1.7,0.7c-0.5,0.5-0.7,1.1-0.7,1.7l0.1,17.8
	c0,1.2,0.8,2.2,2,2.4l4.8,0.9c0.3,0.1,1.4,0.3,2.4,0.8c0.9,0.4,1.9,1.2,2.1,1.4c0.5,0.5,0.9,1.1,1,1.3c0.3,0.8,0.4,2,0.4,2.4
	l0.3,117.7c0,0.3-0.1,1.5-0.4,2.5c-0.2,0.8-0.7,1.5-0.8,1.7c-0.2,0.2-1.2,1.1-1.9,1.5c-0.8,0.4-2,0.7-2.4,0.8l-4.9,0.8
	c-1.2,0.2-2,1.2-2,2.4l0,5v12.8c0,1.3,1,2.3,2.2,2.4l5.3,0.5c3,0.3,18.2,1.7,26.7,2.3c3.2,0.2,5.5,0.5,18,1.8l13.5,1.5
	c0.7,0.1,1.4-0.1,1.9-0.6c0.5-0.5,0.8-1.1,0.8-1.8l0-18.6c0-1.2-0.9-2.3-2.1-2.4l-5.1-0.7l0,0l-1.6-0.5c-1.1-0.5-2.3-1.3-2.6-1.6
	c-0.2-0.2-1-1.3-1.2-1.7c-0.3-0.6-0.4-1.4-0.4-1.7c0,0,0,0,0,0c0-1-0.1-39.5-0.1-49.6c2.8,0,7.3,0,7.3,0c0.1,0,0.6,0.1,0.9,0.2
	c0,0,0.6,0.4,1.9,1.6c0,0,0.5,0.8,0.8,1.6l0.9,2.9l1,4.7c0.2,1.1,1.2,1.9,2.4,1.9l4.8,0h16.6c1.4,0,2.4-1.1,2.4-2.5V78.2
	c0-1.4-1.1-2.4-2.4-2.4h-21.9c-1.2,0-2.2,0.9-2.4,2.1l-0.7,5.1l-0.5,1.8c-0.4,0.9-1.2,2-1.4,2.2c-0.8,0.8-1.2,1.1-1.2,1.1
	c0,0-0.9,0.2-1,0.2c-0.3,0-4.8,0-7.5,0c0-4.4-0.1-43.1-0.1-44.1c3.3,0,11.2,0,11.2,0c0.1,0,2.2,0.1,4,0.7c0.8,0.3,2.1,1.1,2.9,1.7
	c0.6,0.5,1.8,2,2.1,2.8c0.6,1.3,0.7,2.5,0.7,2.6l0,16.1c0,1.3,1.1,2.5,2.4,2.5h24.7c1.4,0,2.5-1.1,2.5-2.5V16c0-1.3-1.1-2.5-2.5-2.5
	L647.9,13.5 M653.8,16v52.2h-24.7c0,0,0-15.9,0-16.3c0-0.2-0.1-1.8-0.9-3.4c-0.6-1.3-2-3-2.8-3.7c-0.9-0.8-2.5-1.8-3.7-2.2
	c-2.3-0.8-4.7-0.9-4.7-0.9l0,0c0,0-8.7,0-13.6,0c0,6.7,0.1,42.1,0.1,49c4.1,0,9.7,0,10.1,0c0.4,0,1.3-0.2,1.9-0.4
	c0.3-0.1,0.9-0.5,2-1.6c0.3-0.3,1.3-1.7,1.8-2.9c0.5-1.2,0.7-2.4,0.7-2.4l0.7-5.1h21.9v49.6h-16.6h-4.8l-1-4.7c0,0-0.4-1.7-1-3.3
	c-0.5-1.1-1.2-2.2-1.4-2.4c-1.7-1.7-2.5-2.1-2.6-2.1c-0.8-0.3-1.6-0.4-1.9-0.4c0,0-5.6,0-9.8,0c0,12.9,0.2,52.2,0.2,52.2
	c0,0,0.1,1.3,0.6,2.5c0.4,0.9,1.4,2.2,1.8,2.6c0.4,0.4,1.9,1.4,3.3,2c1.1,0.5,2.2,0.6,2.2,0.6l5.1,0.8v18.6l-13.4-1.5
	c-12.6-1.4-14.9-1.6-18.1-1.8c-9.1-0.6-25.9-2.2-26.6-2.3l-5.3-0.5v-12.7l0-5l4.9-0.8c0.5-0.1,1.9-0.4,3.1-1
	c1.1-0.6,2.3-1.7,2.7-2.1c0.3-0.3,1-1.4,1.3-2.6c0.4-1.3,0.5-2.7,0.5-3.2c0-3.4-0.3-117.8-0.3-117.8c0-0.5-0.2-2-0.6-3.2
	c-0.2-0.6-0.8-1.5-1.5-2.2c-0.4-0.4-1.6-1.4-2.8-1.9c-1.1-0.5-2.5-0.9-2.9-1l-4.8-0.9L552.6,16h95.3L653.8,16L653.8,16L653.8,16z"/>
<path id="path3645" class="st0" d="M710.7,19.4l-47,0.1c-1.4,0-2.4,1.1-2.4,2.5v6.9c0,0.9,0.7,1.8,1.4,2.2l2.6,1.6
	c1.2,0.9,2.2,1.8,2.5,2.2c0.5,0.6,1.5,1.9,2,3.3c0.7,1.7,0.8,3.8,0.8,3.8c0-0.2,0.1,131.4,0.1,131.4c0,0,0,2-0.5,4
	c-0.5,1.8-1.4,3.6-1.7,4.1c-0.7,0.8-2.2,2.5-3.9,3.4c-1.8,1-4,1.3-4.1,1.3c-1.2,0.2-2.1,1.2-2.1,2.4v7.2c0,1.2,0.8,2.1,1.9,2.4
	l28.9,6.3c4.4,0.9,24.2,5.9,24.4,6c0.7,0.2,1.5,0,2.1-0.4c0.6-0.5,0.9-1.2,0.9-1.9l0-7.9c0-1.1-0.7-2.1-1.8-2.3c0,0-1.6-0.4-3.1-1.4
	c-2.2-1.3-4.3-3.2-4.7-3.9c-0.4-0.6-1.8-2.5-2.4-4.4c-0.7-2.1-0.7-4.4-0.7-4.5c0,0,0-137.6,0-140.3c0-0.2,0.2-2.5,0.8-4.5
	c0.4-1.3,1.1-2.5,1.4-3c0.5-0.7,1.9-2.1,3.4-3.1l2.1-1.2c0.7-0.4,1.4-1.4,1.4-2.2v-7.4c0-0.6-0.3-1.3-0.7-1.7
	C711.9,19.7,711.3,19.4,710.7,19.4 M663.7,22l47-0.1v7.4c0,0-1.2,0.6-2.5,1.5c-1.5,1.1-3.2,2.6-3.9,3.6c-0.5,0.7-1.4,2.2-1.8,3.7
	c-0.7,2.5-1,5.1-1,5.1l0,140.4c0,0,0,2.7,0.8,5.3c0.7,2.2,2.2,4.3,2.8,5.2c0.8,1,3.2,3.1,5.4,4.5c1.9,1.1,3.8,1.6,3.8,1.6l0,7.9
	c0,0-20.1-5-24.5-6c-4.4-1-28.9-6.3-28.9-6.3v-7.2c0,0,2.6-0.3,4.9-1.6c2.2-1.2,4-3.3,4.7-4.1c0.6-0.8,1.7-2.9,2.1-5
	c0.6-2.3,0.6-4.5,0.6-4.5l-0.1-131.6c0,0-0.2-2.4-1-4.5c-0.7-1.7-1.8-3.2-2.4-3.9c-0.5-0.7-1.8-1.8-3-2.7c-1.5-1.1-3.1-1.8-3.1-1.8
	L663.7,22L663.7,22z"/>
<path id="path3647" class="st0" d="M716.5,13.5l-58.7,0.2c-1.4,0-2.4,1.1-2.4,2.4v16.1c0,0.9,0.4,1.7,1.2,2.1l3.4,2c0,0,1.6,1,2,1.2
	c0.1,0.1,1.4,1.1,1.4,1.1c0.2,0.2,0.8,1.1,1.1,1.6c0.2,0.6,0.4,1.5,0.4,2c0,0.3,0.1,131.1,0.1,131.1s0,1.4-0.3,2.6
	c-0.2,0.9-0.6,1.7-0.8,2c-0.5,0.6-1.3,1.5-1.9,1.7c-0.7,0.4-1.8,0.6-2.1,0.6l-5.1,0.7c-1.2,0.2-2.1,1.2-2.1,2.4l0,5.1v12
	c0,1.2,0.8,2.1,1.9,2.4l33.5,7.3c3,0.7,14.4,3.5,24.1,5.9c0.2,0,7.5,1.9,7.5,1.9c0.7,0.2,1.5,0,2.1-0.4c0.6-0.5,1-1.2,1-1.9
	l-0.1-19.9c0-1.1-0.7-2-1.8-2.3l-4.3-1.2l0,0l-1.7-0.7c-1.5-0.9-3-2.2-3.2-2.5c-0.6-0.8-1.2-1.8-1.4-2.5c-0.3-1-0.4-2.3-0.4-2.8
	c0,0,0-136.9,0-140c0.1-0.5,0.2-1.9,0.6-3.2l0.5-1.2c0.1-0.2,1-1.1,2-1.8c0.2-0.1,4.2-2.6,4.2-2.6c0.6-0.4,1.1-1,1.2-1.7l0.6-3.6
	c0-0.1,0-0.3,0-0.4V16c0-0.7-0.3-1.3-0.7-1.7C717.8,13.8,717.2,13.5,716.5,13.5 M716.5,16v13.2l-0.6,3.6l-4.4,2.6
	c-1.2,0.9-2.3,2-2.6,2.4c-0.2,0.3-0.7,1.1-0.9,1.9c-0.4,1.6-0.7,3.3-0.7,3.8c0,6.4,0,140.1,0,140.1c0,0.5,0.1,2.1,0.5,3.5
	c0.4,1.1,1.2,2.5,1.9,3.4c0.5,0.5,2.2,2,3.8,3c1.1,0.7,2.3,1,2.3,1l4.3,1.2l0.1,19.9l-7.3-1.8c-0.2-0.1-20-5-24.3-6l-33.5-7.3v-11.9
	l0-5.1l5.1-0.7c0.4-0.1,1.9-0.3,2.9-0.9c1.1-0.6,2.2-1.8,2.7-2.5c0.2-0.3,0.8-1.6,1.1-2.8c0.4-1.5,0.4-3.1,0.4-3.1
	s-0.1-130.6-0.1-131.3c0-0.5-0.2-1.8-0.6-2.7c-0.4-0.9-1.1-1.9-1.5-2.4c-0.2-0.2-0.8-0.8-1.8-1.5l-2.1-1.3l-3.4-2V16.1l52.9-0.1
	H716.5z"/>
<path id="path3649" class="st0" d="M730.9,19.4c-1.3,0-2.4,1.1-2.4,2.4l-0.3,6.9c0,1.1,0.6,2.1,1.7,2.4c2.7,0.9,7,2.8,8.2,4.3
	c0.8,0.9,1.7,2.5,2.2,4c0.7,2.4,0.7,4.8,0.7,4.8v148.2c0-0.1-0.1,2.4-0.7,4.5c-0.4,1.4-1.2,2.5-1.8,3.1c-0.5,0.6-1.8,1.4-3.3,1.9
	c-2,0.7-4.1,0.8-4.1,0.8c-1.3,0.1-2.3,1.1-2.3,2.4v7.6c0,1.1,0.7,2,1.7,2.3c0.2,0.1,20.7,6.2,34.8,11c14,4.7,43.3,15.9,43.6,16
	c0.7,0.3,1.4,0.2,2.1-0.2c0.6-0.4,1.1-1,1.2-1.7l12.2-72.3c0.1-0.7-0.1-1.4-0.5-2c-0.5-0.6-1.2-0.9-1.9-0.9l-7.7,0
	c-1.1,0-2.1,0.7-2.4,1.8L802,202c0,0-0.9,2.4-0.9,2.4c-0.8,1.6-2,3.3-2.9,4.2c-0.9,0.9-3.1,2.5-4.6,3.3c-1.2,0.6-1.8,0.8-2.8,1
	c-0.9,0.2-4.4,0.4-6.2,0c-0.3-0.1-0.8-0.2-0.8-0.2c-0.2-0.1-8.6-2.7-8.6-2.7l0,0c0,0-0.3-0.1-0.5-0.2c0-0.1,0-0.2,0-0.2
	s-0.1-167.2-0.1-167.2c0,0.1,0.1-2.2,1.1-4.3c0.6-1.4,2.2-3,2.9-3.7c0.9-0.8,4.3-2.3,6.9-3.3c1-0.4,1.6-1.3,1.6-2.3v-6.8
	c0-1.4-1.1-2.5-2.4-2.5H730.9 M730.9,21.9h53.8v6.8c0,0-6,2.2-7.8,3.8c-0.7,0.7-2.6,2.6-3.5,4.5c-1.2,2.7-1.3,5.4-1.3,5.4l0.1,167.1
	c0,0-0.1,1.2,0.4,1.8c0.4,0.6,1.9,1.1,1.9,1.1l8.5,2.6c0,0,0.8,0.3,1.2,0.3c1.5,0.3,6,0.2,6.9,0c0.9-0.1,2-0.4,3.7-1.2
	c1.7-0.9,4.1-2.7,5.2-3.7c1.2-1.2,2.6-3.2,3.4-4.9c0.8-1.5,1.1-2.8,1.1-2.8l10-35.2l7.7,0l-12.2,72.3c0,0-29.5-11.3-43.7-16.1
	c-14.3-4.8-34.8-11-34.8-11v-7.6c0,0,2.4-0.2,4.7-0.9c1.8-0.6,3.4-1.6,4.3-2.6c0.9-0.9,1.8-2.3,2.4-4.1c0.7-2.4,0.8-5.2,0.8-5.2
	V44.2c0,0,0-2.8-0.8-5.5c-0.6-1.9-1.7-3.8-2.7-4.9c-2.2-2.7-9.3-5-9.3-5L730.9,21.9z"/>
<path id="path3651" class="st0" d="M920.8,19.3c-1.2,0-2.2,0.8-2.4,2c0,0-23.1,111.5-23.3,112.5c-1.2,0-4.2-0.1-5.3-0.1
	c-0.1-0.2-0.2-0.5-0.2-0.5c0,0.1-23.5-111.9-23.5-111.9c-0.2-1.1-1.2-2-2.4-2h-44.8c-0.6,0-1.3,0.3-1.7,0.7
	c-0.4,0.5-0.7,1.1-0.7,1.8l0.1,7.1c0,1.2,0.9,2.2,2,2.4c0,0,2.1,0.4,4.1,1.3c1.8,0.8,3.4,2.3,4.1,3c0.8,0.9,1.8,2.6,2.3,4.3
	c0.4,1.7,0.4,3.5,0.4,3.5c0,0.1,0.1,179,0.1,179c0,0.1,0,1.6-0.5,3.1c-0.5,1.5-1.8,3-2.4,3.6c-0.7,0.7-2.1,1.6-3.6,2.2
	c-2.1,0.8-4.5,1.3-4.5,1.3c-1.2,0.2-2,1.2-2,2.4v8.5c0,1,0.6,1.9,1.5,2.3l17.4,7.7l21.2,9.9c0.8,0.3,1.6,0.3,2.3-0.2
	c0.7-0.4,1.1-1.2,1.1-2.1v-7.5c0-1-0.6-1.9-1.5-2.3c0,0-2.1-0.9-4.1-2.1c-1.7-1-3.2-2.3-3.7-3c-0.7-0.9-2-2.9-2.6-4.7
	c-0.8-2.3-0.8-4.5-0.8-4.6c0,0,0.1-132.9,0.2-145.7c1.3,0,5.1,0,6.2,0C856,102.3,885.3,238,885.3,238c0.2,1.1,0.8,5.5,2.4,5.6
	c1.5,0,2.3-4.4,2.5-5.6c0,0,30.4-145.8,30.6-146.8c1.6,0,5.1,0,6.6,0.1c0,13.3-0.1,190.5-0.1,190.5c-0.1,3.2-0.8,7.6-1.5,8.5
	l-0.4,0.5c-0.8,1.1-2.1,2.7-3.6,3.6c-2.1,1.2-4.8,1.6-4.8,1.6c-1.2,0.2-2.1,1.2-2.1,2.4v7.5c0,1.3,1.1,2.4,2.4,2.4h58.2
	c0.7,0,1.3-0.2,1.7-0.7c0.5-0.5,0.7-1.1,0.7-1.7l-0.1-7.8c0-1.2-0.9-2.3-2.2-2.4c0,0-1.9-0.2-3.6-0.8c-1.8-0.6-3.4-1.6-3.9-2.1
	c-0.7-0.7-2.3-2.5-2.9-3.9c-0.9-1.9-0.9-3.8-0.9-3.8c0,0-0.1-242.6-0.1-242.6c0,0.1,0.1-1.9,0.8-3.8c0.5-1.4,1.7-2.9,2.5-3.8
	c0.7-0.7,2.2-1.8,3.7-2.5c2.1-0.9,4.3-1.4,4.3-1.4c1.1-0.2,1.9-1.2,1.9-2.4v-7.1c0-1.3-1.1-2.5-2.4-2.5L920.8,19.3 M818.9,21.9h44.8
	l23.5,111.9c0,0,0.3,1.2,0.8,1.8c0.5,0.5,1.3,0.6,1.3,0.6l6.5,0.1c0,0,0.7,0,1-0.3c0.3-0.3,0.6-1.1,0.6-1.1l23.4-113H975v7.1
	c0,0-2.4,0.5-4.8,1.6c-1.8,0.8-3.5,2-4.5,2.9c-1,1-2.4,2.8-3.1,4.7c-0.9,2.3-1,4.6-1,4.6l0.1,242.6c0,0,0,2.3,1.1,4.8
	c0.8,1.8,2.7,3.9,3.4,4.6c0.8,0.8,2.8,2,4.8,2.7c2.1,0.7,4.1,0.9,4.1,0.9l0.1,7.7h-58.2v-7.5c0,0,3.2-0.5,5.7-2
	c2.2-1.3,3.8-3.6,4.7-4.7c1.8-2.3,2.1-10,2.1-10l0.1-191.3c0,0,0.1-0.9-0.5-1.4c-0.4-0.4-1.3-0.3-1.3-0.3l-7.8-0.1
	c0,0-0.8-0.1-1.2,0.2c-0.3,0.3-0.5,1.2-0.5,1.2l-30.8,147.2L855.9,90.2c0,0-0.1-0.9-0.5-1.1c-0.3-0.3-1-0.1-1-0.1h-7.9
	c0,0-0.6-0.1-1.2,0.3c-0.3,0.2-0.3,1.1-0.3,1.1l-0.2,146.8c0,0,0.1,2.6,0.9,5.3c0.7,2.2,2.2,4.5,3,5.5c0.8,1,2.5,2.5,4.3,3.6
	c2.2,1.4,4.4,2.3,4.4,2.3v7.5c0,0-11.4-5.4-21.2-9.9c-9.9-4.5-17.5-7.8-17.5-7.8v-8.5c0,0,2.6-0.5,5-1.4c1.9-0.8,3.5-1.9,4.4-2.7
	c0.9-0.8,2.4-2.7,3.1-4.6c0.7-2,0.7-4,0.7-4l-0.1-178.8c0,0,0.1-2.1-0.5-4.3c-0.6-2.1-1.8-4.2-2.8-5.3c-1-1.1-2.9-2.7-4.9-3.6
	c-2.4-1.1-4.8-1.5-4.8-1.5L818.9,21.9z"/>
<path id="path3653" class="st0" d="M983.7,293.1c0-1.2-1-2.3-2.2-2.4l-5.2-0.6l-2.4-0.5c-0.8-0.3-1.5-0.7-1.8-0.9
	c-0.6-0.7-1.4-1.7-1.5-2c-0.3-0.8-0.4-1.5-0.4-1.5l-0.1-242.2c0-0.2,0.1-1.2,0.4-1.9c0.2-0.4,0.7-1.2,1.1-1.6c0.2-0.2,1.1-0.8,2-1.3
	c1.5-0.7,3.1-1,3.2-1l4.6-1c1.1-0.2,1.9-1.2,1.9-2.4l0-4.7v-13c0-1.4-1.1-2.4-2.5-2.4H975H916c-1.2,0-2.2,0.8-2.4,2
	c0,0-17.4,83.9-21.2,102.5c-3.9-18.6-21.5-102.4-21.5-102.4c-0.2-1.1-1.2-2-2.4-2h-55.5c-0.6,0-1.3,0.3-1.7,0.7
	c-0.5,0.5-0.7,1.1-0.7,1.8l0.3,18c0,1.2,0.9,2.2,2,2.4l4.8,0.8c0.3,0.1,1.6,0.3,2.6,0.8c0.9,0.4,1.9,1.3,2.2,1.6
	c0.2,0.2,0.8,1.2,1,1.9c0.2,0.6,0.2,1.5,0.2,1.7c0,0,0,0.2,0,0.2l0.1,115.7l-13.7,0c-1.1,0-2.1,0.7-2.4,1.8c0,0-11.1,39.1-11.2,39.3
	c0,0.1-0.5,1.3-0.6,1.5c-0.5,1.1-1.4,2.2-1.8,2.7c-0.4,0.4-2.2,1.7-3.1,2.2c0,0-0.6,0.2-0.8,0.3c-0.6,0-4,0-4.6,0
	c-0.4-0.1-3.2-1-5-1.5c0-3.5-0.1-162.9-0.1-162.9c0-0.1,0.2-1.2,0.6-2.1c0.1-0.3,0.8-1,1.4-1.7c0.5-0.4,2.7-1.4,5.1-2.3l3.9-1.4
	c1-0.4,1.6-1.3,1.6-2.3l0-16.8c0-0.7-0.3-1.3-0.7-1.7c-0.4-0.5-1.1-0.7-1.7-0.7h-5.9h-59.4c-1.3,0-2.4,1-2.4,2.4c0,0-0.6,17-0.6,17
	c0,1.1,0.7,2,1.7,2.3l4.2,1.4c2.6,0.9,5.1,2.2,5.6,2.6c0.3,0.4,0.8,1.2,0.9,1.7c0.5,1.5,0.5,3.2,0.5,3.2v148c0,0.4-0.2,1.9-0.5,3
	c0,0.2-0.2,0.4-0.4,0.7c0,0,0,0,0.1-0.1c0,0-0.1,0.1-0.1,0.1l0,0c0,0,0,0,0,0c-0.2,0.1-0.8,0.4-0.8,0.4c-1,0.3-2.3,0.5-2.7,0.5
	l-5.4,0.4c-1.3,0.1-2.3,1.2-2.3,2.4l0,5.5V217c0,1.1,0.7,2,1.7,2.3l4.2,1.3c2.2,0.7,21.4,6.5,34.6,10.9
	c13.3,4.5,40.3,14.8,43.4,15.9c0,0,2.7,1,4.7,1.8c0.2,0.1,0.3,0.2,0.5,0.3l20.9,9.3c0,0,29.5,13.7,29.5,13.7
	c0.8,0.3,1.6,0.3,2.4-0.2c0.7-0.5,1.1-1.2,1.1-2.1l0-9.2v-11.4c0-1-0.6-1.9-1.5-2.2l-3.6-1.5l-3.2-1.7c-1.1-0.7-2-1.5-2.2-1.7
	c-0.5-0.6-1.3-2-1.7-3c-0.5-1.4-0.5-2.9-0.5-2.9c0,0,0.1-87.3,0.1-119.3c5.5,25.2,28.4,130.6,28.4,130.6s0.4,1.9,1,2.6
	c0.6,0.7,2.3,0.6,2.3,0.6h6c0,0,1-0.1,1.7-0.8c0.8-0.7,1.3-2.3,1.3-2.3s22.4-106.8,27.5-131.4c0,34.4-0.1,165-0.1,165
	c-0.1,2.3-0.5,4.7-0.7,5.5c-0.5,0.6-1.4,1.8-1.9,2.1c-0.8,0.4-2.2,0.8-2.7,0.9l-5,0.8c-1.2,0.2-2.1,1.2-2.1,2.4l0,5v13.4
	c0,1.4,1.1,2.4,2.4,2.4h70c0.6,0,1.3-0.2,1.7-0.7c0.4-0.5,0.7-1.1,0.7-1.7C983.8,311.9,983.7,293.1,983.7,293.1 M911.4,311.9v-13.4
	l0-5.1l5-0.8c0.5-0.1,2.4-0.5,3.6-1.2c1-0.6,2-1.9,2.7-2.7c0,0,0.1-0.2,0.2-0.3c0.5-1,0.9-4.2,1-6.6c0,0,0.1-179.2,0.1-187.1
	c-0.2,0-0.2,0-0.4,0c-1,4.9-31.8,152-31.8,152s-0.3,1.1-0.7,1.4c-0.3,0.3-1.1,0.3-1.1,0.3l-4.6-0.1c0,0-0.7,0.1-1.1-0.4
	c-0.4-0.4-0.6-1.3-0.6-1.3S852,100.1,850.9,94.9c0,24.7-0.2,142.1-0.2,142.1c0,0,0.1,1.8,0.6,3.6c0.4,1.3,1.5,2.9,2.1,3.7
	c0.3,0.3,1.4,1.3,2.8,2.2c1.7,1.1,3.5,1.8,3.6,1.8l3.6,1.5v11.4l0,9.2l-29.5-13.7l-17.3-7.7l-6-2.7l-2.8-1.1
	c-0.3-0.1-29.5-11.3-43.5-16c-14-4.8-34.4-10.9-34.7-11l-4.2-1.3v-11.9l0-5.5l5.4-0.4c0.5,0,2-0.2,3.3-0.6c0.9-0.3,1.6-0.8,1.8-1
	c0.3-0.3,0.8-0.9,1-1.7c0.4-1.4,0.5-3.1,0.6-3.7c0-0.3,0-148,0-148c0,0,0-2-0.6-3.9c-0.3-1-1-2.1-1.5-2.7c-0.8-0.8-4-2.3-6.7-3.2
	l-4.2-1.4l0.6-16.9h59.4h5.9v16.8l-3.9,1.4c-2.3,0.9-5.1,2.1-5.8,2.7c-0.8,0.7-1.8,1.9-2.1,2.5c-0.6,1.2-0.8,2.7-0.8,3.1
	c0,0.5,0.1,160.5,0.1,164.7c2.3,0.7,5.3,1.8,5.8,1.9c0.5,0.1,1.5,0.4,1.5,0.4c1.1,0.2,4.3,0.1,5.1-0.1c0.1,0,0.6-0.1,1.5-0.6
	c1.2-0.6,3.1-2,3.7-2.6c0.7-0.7,1.7-2.1,2.3-3.4c0,0,0.7-1.7,0.7-1.8l11.2-39.5l13.7,0.1l2.5,0l0-2.4L826,43.7v-0.2v-0.1
	c0-0.4,0-1.5-0.3-2.4c-0.3-1.1-1.1-2.4-1.5-2.9c-0.5-0.5-1.8-1.6-3-2.2c-1.3-0.6-2.7-0.9-3.3-1l-4.8-0.8l-0.3-18h55.5
	c0,0,22.8,108.7,23.9,113.9c1.4-7,23.6-113.9,23.6-113.9h59.1h5.9v13v4.7l-4.6,1c0,0-1.9,0.4-3.6,1.2c-1.2,0.6-2.3,1.4-2.7,1.8
	c-0.6,0.6-1.4,1.7-1.7,2.5c-0.4,1.1-0.6,2.3-0.6,2.8c0,4,0.1,242.3,0.1,242.3c0,0,0,1.2,0.6,2.4c0.3,0.7,1.4,2.1,2.1,2.8
	c0.3,0.2,1.4,0.9,2.6,1.3c1.1,0.4,2.5,0.6,2.9,0.7l5.2,0.6l0.1,18.9L911.4,311.9L911.4,311.9z"/>
<path id="path3655" class="st0" d="M235.1,13.7l-50.8-0.2c-0.7,0-1.3,0.3-1.7,0.7c-0.5,0.5-0.7,1.1-0.7,1.7v18.2
	c0,1.3,1,2.4,2.3,2.4l5.7,0.3c0.4,0,1.6,0.3,2.2,1c1.8,2.1,2.1,5.1,2.2,5.3c0,0.3,0.5,164.8,0.5,164.8l0,3.5
	c-0.1,6.8-1.7,11.1-5.9,15.6c-4,4.2-8.4,6.1-13.5,5.9c-2.6-0.1-8.2-1.3-12.4-5.4c-2.4-2.4-4.8-8-4.9-11.4c0-4-0.8-169.2-0.8-170.8
	c0-1.9,0.4-5.3,1.5-6.8c0.8-1.1,3-1.7,3.9-1.9l5.2-0.6c1.2-0.1,2.2-1.2,2.2-2.4l0.1-17.8c0-0.6-0.3-1.3-0.7-1.7
	c-0.4-0.5-1.1-0.7-1.7-0.7h-66.7c-0.6,0-1.3,0.3-1.7,0.7c-0.5,0.5-0.7,1.1-0.7,1.7l0,17.7c0,1.3,1,2.4,2.4,2.4c0,0,2.8,0.1,4.9,0.5
	c0.7,0.1,2.1,0.4,4.3,2.4c1,0.9,1.5,3.1,1.5,4.7l0.7,174h-1.9c-1.3,0-2.3,0.9-2.5,2.1l-4,31.7c-0.5,3.7-2,13.8-2.5,16.2
	c-0.4,2.2-1.5,4.7-1.8,5.5l-0.2,0.4c-0.8,2-2.4,3.9-4.7,5.7c-4.7,3.8-9.9,4.2-9.9,4.2c0,0-7.9-0.1-12.1-0.1c0-4.6-0.1-87.7-0.1-87.7
	s-0.6-148.2-0.6-154c0.1-0.5,0.5-2,1.9-3.3c0.8-0.7,3-1.5,4.2-1.7l4.8-0.9c1.2-0.2,2-1.2,2-2.4l0-4.9V16.1c0-1.3-1.1-2.4-2.4-2.4
	h-5.9H12.9c-0.6,0-1.3,0.3-1.7,0.7c-0.5,0.5-0.7,1.1-0.7,1.7l0.1,16.7c0,1.1,0.7,2.1,1.8,2.4l5.1,1.4c1.6,0.4,3.2,0.8,4.3,2.1
	c1.3,1.5,1.5,3.6,1.5,3.6c0,0,0,0,0,0c0,1.1,0.6,171.9,0.6,171.9l0.1,25.6l-0.2,41.8c0,0,0,0.5,0,0.5c0,2-0.5,4-0.8,4.5
	c-1.9,2.7-4.2,3.1-4.3,3.2c0,0-5,0.7-5,0.7c-1.2,0.2-2.1,1.2-2.1,2.3l-0.2,5.1c0,0.1-0.1,13.9-0.1,13.9c0,0.7,0.3,1.3,0.7,1.7
	c0.5,0.5,1.1,0.7,1.7,0.7l112.8-0.3c1.3,0,2.3-1,2.4-2.2l4.4-50.6c0.1,0.1,0.3,0.2,0.4,0.3l0.4,0.3c2.9,2,6.1,4.3,12.5,6.4
	c4.8,1.6,10.5,2.5,16.7,2.6c3.2,0.1,8.8-0.4,17.5-2.9c4.9-1.4,9.7-3.9,13.7-6.1c11.2-6.3,17-15.1,21.6-22.3c0,0,0.4-0.6,0.4-0.6
	c3.1-4.8,5.5-12.9,6.7-18.8c1.4-6.8,1.6-12.7,1.6-13c0,0,0-0.3,0-0.3c0-0.2-0.4-160.7-0.4-164.2c0.1-1.3,0.8-3.2,1.2-3.5
	c2.4-1.8,5.4-2.6,5.5-2.6c0,0,4.4-1.2,4.4-1.2c1.1-0.3,1.8-1.3,1.8-2.4l0-16.8C237.5,14.8,236.4,13.7,235.1,13.7 M235,33l-4.4,1.2
	c0,0-3.5,0.9-6.3,3.1c-1.4,1.1-2.1,4-2.2,5.3c0,0.6,0.4,164.3,0.4,164.3l0,0.2c0,0.2-0.2,6-1.5,12.6c-1.1,5.5-3.4,13.5-6.4,18
	l-0.4,0.6c-4.5,6.9-10.1,15.5-20.8,21.5c-3.9,2.2-8.5,4.6-13.2,5.9c-8.4,2.4-13.8,2.9-16.8,2.8c-5.9-0.1-11.5-1-16-2.5
	c-6-2-9-4.1-11.8-6.1l-0.4-0.3c-0.4-0.3-1-0.7-1.6-1.1l0.4-4.1c1.2,1,2.4,1.8,3.2,2.4l0.4,0.3c2.8,1.9,5.4,3.8,10.9,5.6
	c4.2,1.4,9.4,2.2,15,2.3c2.8,0,7.8-0.4,15.8-2.7c4.3-1.2,8.7-3.5,12.5-5.6c10-5.6,15.3-13.8,19.6-20.3l0.4-0.6
	c2.5-3.8,4.8-11.2,5.9-16.8c1.3-6.3,1.5-11.8,1.5-12l-0.4-164.7c0,0.1,0.4-5.3,3.6-7.7c3.3-2.5,7.5-3.6,7.5-3.6
	c1.1-0.3,1.8-1.3,1.8-2.4V22c0-1.3-1.1-2.4-2.4-2.4l-39.1-0.2c-0.6,0-1.3,0.3-1.7,0.7c-0.5,0.5-0.7,1.1-0.7,1.7v6.7
	c0,1.3,1.1,2.4,2.4,2.5c0,0,3.9,0.1,6.4,3.1c3.2,3.8,3.6,8.7,3.6,8.8c0,1.5,0.6,160.6,0.5,168.7c-0.1,8.2-2.3,14.1-7.6,19.5
	c-4.6,4.9-10.4,7.2-17.8,7.2c-5.3,0-11.8-2.8-16.5-7c-4.5-4.1-6.5-12.4-6.5-15.1l-0.8-170.9c0-0.1-0.2-6.5,2.7-10.4
	c2.7-3.6,8-4.1,8-4.1c1.3-0.1,2.2-1.2,2.2-2.4v-6.6c0-1.3-1.1-2.4-2.4-2.4h-55c-1.4,0-2.5,1.1-2.5,2.4v6.3c0,1.3,1,2.3,2.2,2.4
	c0,0,4.1,0.4,7.5,3.6c3.8,3.5,3.2,10.7,3.2,10.7c0,0.1,0,0.2,0,0.2l0.8,170.6c0,0.1-0.1,0.8-0.1,1.9v2.4h2.5l14.1,0l-2.5,29
	l-0.3,3.1l-0.4,4.3l-0.2,3l-4.5,52.1l-112.8,0.3l0.1-13.8l0.2-5.1l5-0.7c0.1,0,3.4-0.5,5.9-4.2c0.8-1.2,1.2-4,1.2-5.8
	c0-0.1,0-0.2,0-0.4v-0.1l0.2-41.9l-0.1-25.6c0,0-0.6-171.4-0.6-172.1l0,0c0,0-0.2-2.9-2.1-5.1c-1.6-1.8-3.8-2.4-5.5-2.9L13,32.8
	l-0.1-16.7h63.5h5.9v12.4l0,4.9l-4.8,0.9c-1.2,0.2-4.1,1.1-5.4,2.3c-2,1.9-2.6,4.3-2.6,4.8c0,1,0.6,154.3,0.6,154.3
	s0.1,81.8,0.1,90.1c5,0.1,14.3,0.1,14.6,0.2c0.4,0,6-0.4,11.3-4.7c2.6-2.1,4.4-4.4,5.4-6.7c0,0,0.1-0.2,0.1-0.4
	c0.4-0.9,1.5-3.5,2-5.9c0.5-2.5,2-12.8,2.5-16.4l4-31.7h2l2.4,0l0-2.5c0-6.6-0.7-173.6-0.7-174c0-2.1-0.6-5-2.3-6.5
	c-2.5-2.3-4.4-2.8-5.5-3c-2.2-0.4-5.2-0.5-5.2-0.5l0-17.7h66.7l-0.1,17.8l-5.3,0.6c-1.1,0.1-4.2,0.8-5.6,2.8c-1.7,2.3-2,6.8-2,8.3
	c0,0,0.8,166.8,0.8,170.8c0,4.1,2.7,10.4,5.6,13.2c4.6,4.5,10.7,6,14,6.1c6.5,0.2,11.4-2.5,15.4-6.7c4.6-4.9,6.6-9.9,6.6-17.2
	c0-0.5,0-1.7,0-3.5c0-24.5-0.5-159.2-0.5-165c0-0.3-0.4-4-2.7-6.7c-1.5-1.7-3.9-1.9-4-1.9l-5.7-0.3V16l50.8,0.2L235,33 M136.4,218.5
	c-0.5-0.5-1.1-0.8-1.8-0.8l-14.1,0c0-1.2,0-1.9,0-1.9l-0.8-170.6c0,0,0.8-8.3-4-12.8c-4.2-3.9-9-4.2-9-4.2v-6.3h55v6.6
	c0,0-6.3,0.6-9.8,5.1c-3.4,4.6-3.2,11.8-3.2,11.8s0.8,166.4,0.8,170.8c0,2.9,2,12.1,7.4,16.9c5.6,5,12.7,7.6,18.2,7.6
	c6.4,0,13.5-1.5,19.6-7.9c6.1-6.4,8.2-13,8.2-21.2c0.1-8.2-0.5-168.8-0.5-168.8s-0.3-5.8-4.2-10.2c-3.3-3.8-8.3-3.9-8.3-3.9v-6.7
	l39.1,0.2v6.4c0,0-4.5,1.2-8.3,4.1c-4.2,3.1-4.6,9.7-4.6,9.7l0.4,164.6c0,0-0.2,5.4-1.4,11.7c-1.2,6-3.4,12.6-5.5,15.9
	c-4.4,6.7-9.4,14.7-19.1,20.1c-3.4,1.9-7.7,4.2-11.9,5.4c-7.8,2.3-12.6,2.6-15.1,2.6c-5.1-0.1-10.1-0.8-14.2-2.1
	c-5.4-1.8-7.8-3.6-10.7-5.6c-1-0.7-2.5-1.9-4.3-3.4l2.7-30.9C137.1,219.7,136.9,219,136.4,218.5z"/>
<path id="path3657" class="st0" d="M24.5,50.2L11.8,37.7c0,0-0.7-0.5-1-1.6c-0.3-1.2-0.3-3-0.3-3.9l1.7,1.9l9,2.5l2.9,3.2L24.5,50.2
	z"/>
<path id="path3659" class="st0" d="M80.7,14.4c0,0,0.8-0.7,1.9-0.7c1.1,0,2.2,0.6,3.3,1.6c1.1,1,11.7,11.5,11.7,11.5l1.5,0.1
	l1.2,8.4l6.1,0.4l5.1,2.8l1.4,10.6l-0.1,20.8c0,0-2.5-1.8-5.6-0.6c-2.5,1-4.4,3.8-4.4,5.9v188l-1.6,10.4l-5,6.6l-8.4,4.5l-3.6,0.4
	l-12.8-0.3l-0.1-26.7L70.5,41l2.3-3.5l6.4-2.1l4.2-1.1V15.1L80.7,14.4z"/>
<path id="path3661" class="st0" d="M334.5,15.2c0,0,1.1-1.6,2.1-1.5c1.6,0,2.1,1.1,4.3,3.2c2.2,2.1,12.2,11.9,12.2,11.9h1.7l0.3,4.7
	l1.7,1.3l9,3.1l1.4,4.2L355.7,117c0,0-14.4-0.1-14.9-0.1c-0.5,0-1.2-0.3-1.6-0.7c-0.5-0.5-29.5-29.1-29.5-29.1l0.1,41.9l-0.3,51.8
	l-3.6,8.1l-10.7,4.1l-10.6-4.8l-2.6-8.4l0.2-130.5l4.6-8l8.1-2.9l9.2,4.2l5.1,11.7l0.1,29.6l1.1,1.2l26.9-0.3l0.4-69.1L334.5,15.2z"
	/>
<path id="path3663" class="st0" d="M389.4,63.6c0.1-0.3,0.2-0.5,0.5-0.5c0.2,0,0.4,0.2,0.5,0.5c0.1,0.3,8.6,50.2,8.8,51.1
	c0.2,1-0.3,2.3-1.7,2.4c-1.4,0-12.8,0-14,0c-1.2,0-2.1-1-1.9-2.4C381.7,112.5,389.3,63.9,389.4,63.6z"/>
<path id="path3665" class="st0" d="M438.7,15c0,0,0.7-1.5,2.3-1.5c1.6,0,2.9,1.7,4.3,3.1c1.4,1.3,13.3,13.2,13.3,13.2h1.5l-2,7.1
	l-0.8,8.9l0.1,33.5l3,13.1l6.1,8.2l18.4,13.1l18.4,11.8l2.6,3.4l0.1,23.7l-4.3,6.9l-7.4,2.2l-8.4-3.8l-3.4-7.9l-0.3-26l-2.3-1.5
	l-0.7-0.4c0,0-12.2-16.3-12.7-16.9c-0.4-0.7-1.4-0.6-1.2,0.5c0.2,1.1,3.4,17.7,3.4,17.7l-10.8-0.4l-0.7,1l0.1,27.1l-0.1,19.9
	l-4.9-1.8l-4.8-4.9l-2.9-19.3l-4.8-31.8l-5.6-33.7L428,39.5l1.4-2.4l4.2-1.3l7.8,0.6l0.9-1.7L442,14.9L438.7,15z"/>
<path id="path3667" class="st0" d="M546.1,13.6c1.9,0,2.4,1,3.1,1.8c0.2,0.2,0.4,0.4,0.4,0.4h1l0.3,0.9l0.2,16.9l1.4,1.2l10.2,3.5
	L564,40l0.2,65.1l-13.6-0.1c0,0-26.1-26-26.8-26.6c-0.7-0.6-1.6-1.4-1.7,0.4c-0.1,1.7,0,11.5,0,11.5l-20.3-13.4l-4.1-4.5V47l3.8-4.6
	l5.2-1.8l6.8,1.1l6.3,6.7l2.1,9.9L521.6,73l0.7,0.9l23.8,0.4l1.8-0.8l-0.7-58l-2.3-0.3L546.1,13.6z"/>
<path id="path3669" class="st0" d="M824.4,188.2c0.2-1.9,1.4-4.7,1.7-0.2c0.3,4.5,0.4,30.9,0.3,32.8c-0.1,2-0.9,3.9-2.3,5.4
	c-1.7,1.8-4,2-4.5,2c-0.9,0-2.1-0.7-1-6.6C819.6,215.6,824.4,188.2,824.4,188.2z"/>
<path id="path3671" class="st0" d="M787.3,15.2c0,0,1.6-1.7,3-1.7c1.9,0,2.9,1.6,4.6,3.3c1.6,1.6,14.8,14.4,14.8,14.4h1.9l0.1,2.6
	l1,1.5l9.2,2.4l2.9,3.4l-0.1,27.5c0,0-8.8,0-10.7,0c-2.7,0-5.4,3.1-5.5,5.9c-0.1,2.8,0.1,86.2,0.1,86.2l-10.6,38l-4,7.2l-5.5,2.2
	l-6.7-1.1l-2.6-1.3l0.1-165l2.9-3.4l9.6-3.9l-0.2-18.3L787.3,15.2z"/>
<path id="path3673" class="st0" d="M166.2,15c0,0,0-1.5,1.4-1.5c1.5,0,2.7,1.6,4.1,3l8.6,8.5h2l0.5,9.7l1.8,0.9l7,0.8l3.6,5v28.6
	c0,0-2.8-1.1-4.8-0.2c-2.3,1-3.9,3.2-3.9,5.7c0,2.8,0,154.7,0,154.7l-6.3,3.8l-10,0.1l-7.6-3.9l-5.8-10L156,40l3.4-4.1l9.3-1V15.5
	L166.2,15z"/>
<path id="path3675" class="st0" d="M865.4,15.1c0,0,1.4-1.6,3-1.6c1.6,0,2.5,1.5,4.3,3.3c1.7,1.8,32.9,32.6,32.9,32.6h2.1l-7.9,38.7
	l-7,33.5l-0.8,0.1l-8.4-39.9L874.6,40l-5.4-24.8L865.4,15.1z"/>
<path id="path3677" class="st0" d="M892.5,304.3c-0.7-0.4-72.2-43.7-162.5-69.7c-72.9-21-145.4-31.6-215.5-31.6
	c-50.7,0-114.2,3.2-200.4,26.6c-94.2,25.6-171.9,71.6-172.6,72c-0.5,0.3-0.7,1-0.4,1.6c0.3,0.6,1,0.7,1.6,0.4
	c0.7-0.4,78.2-46.3,172.1-71.8c86-23.4,149.2-26.5,199.8-26.5c69.9,0,142.1,10.6,214.8,31.6c90,25.9,161.2,69,161.9,69.4
	c0.5,0.3,1.2,0.1,1.6-0.4C893.2,305.4,893,304.6,892.5,304.3 M1002.9,69.3c2.9-1.5,7.7-1.5,8.6-1.5c1.7-0.1,2-1.8,2-1.8
	s0.1-16.9,0-18.8c-0.1-1.9-0.5-2.2-1-2.7c-0.5-0.5-26.7-27.2-28-28.7c-1.3-1.5-1.7-2.3-3.9-2.4c-1.4,0-2.2,1.3-2.2,1.3l3.7,0.8
	L982,34l-9.9,2.8l-2.5,3L968.9,285l1.1,3.3l4.8,2l7.5,1.4l0.3,20l-0.6,0.8l-70.7,0.2l-1-0.6l-0.9-3.2l-2.2-0.1l-9.6-9.8v-16.3
	c0,0,0-2.2-0.3-3.1c-0.3-0.9-1.3-1.7-1.3-1.7l-9.3-9.6c0,0-2.1-2.3-2.5-3.1c-0.4-0.8-0.4-2.4-0.4-2.4s0.1-8.1,0.1-9.2
	c0-1.1,1-0.9,1.4-0.6c0.4,0.3,22.7,21.6,22.7,21.6l14.5,0.3l0.4-160.3l-2.3-0.3L893,247.5l-1.6,2.1l-7.2-0.2l-1.4-1.9l-28.7-133.2
	l-2,0.5l-0.3,119.3l1.1,7.4l4.6,3.9l7,2.6l0.1,22.3l-0.6,1.3c0,0-43.5-20.3-69-30.1c-25.5-9.8-71-23.8-71-23.8l0-19.4l9.6-0.7
	l2.5-2.4l0.1-154l-2.3-3.4l-10.9-4.6l0.2-15.8l-2.1,0c0,0-0.6-0.9-1.4-1.8c-0.9-1-1.4-2.1-3.1-2.1c-0.8,0-1.5,1-1.5,1l2.5,0.2
	L717.4,33l-6.1,3.3l-2.4,4.4l-0.5,144l2.3,4.7l6.9,3.7l3.8,1.2l0.5,21.1l-1.9,0.8l-23.2-5.5l-43-9.8l-0.1-2.4l-26.1-26.1
	c0,0,0-28.4,0-29.9c0-1.5,1-1.8,1.9-0.8c1.2,1.3,15.7,15.3,15.7,15.3l16.9-0.1l4,1.5l-0.1-113.8l-2.5-8.3l-8.7-4.7l0.1,36.6l-27,0.2
	V50.6l-3.9-6.5l-5.2-1.4l-14.3-0.6v46.9h10.7l3.1-4.6l1-6.5l1.1-1.1h22.2l1.3,0.8l-0.3,49.6l-0.9,1.2l-20.3,0.5l-2.2-0.8l-1.6-4.9
	l-2.5-6.4l-2.6-1.1h-8.7l0.1,53.6l4.3,3.5l6.4,0.9l2.1,0.8l0.5,19.1l-2.1,1.5l-63.8-6.3l-0.5-1.2l0.4-17.7l0.2-1l7.7-1.2l3.1-3.9
	l1.2-3.7l-0.7-34.6c0,0-23-23-24.2-24.3c-1.1-1.3-2.5-0.8-2.5-0.8l7,9.4l3.8,11.8l0.2,33.7l-3.8,14l-8.1,10.4l-13.2,8.3l-12.9,2.2
	l-10-0.8l-17.1-5.4l0.6,4.5l-1.5,0.9l-23.7,0.2l-1.4,0.2l-57.4,6.9l-1.1-0.5l-0.3-19.1l4.1-1.4l4.1-2.6l0.1-2.8l-4.7-29.1l-22.6-0.1
	l-6.1,37l1.2,1.3l8.3-0.2l1.1,0.9l0.1,17.8l-1.1,1.4l-14.9,3.3l-28.1,5.6l-2.4-0.1l-0.3-3l0.3-13l1.3-3.2l5.3-5.2l2-5l2.4-11.9
	l3.5-26.3c0,0-9.2-8.7-11.3-11c-2.2-2.3-2.7-2.3-3.4-2.3c-0.7,0-0.6,1.3-0.6,1.3l2,0.7v26.8l-0.7,21.4l-0.4,9.9l-1.6,5.4l-6.8,12
	l-9.6,9.5l-21,9.6l-18.9,0.6l-12.9-2.7L254,215l-4-4.7l-6.7-9.5l-2.8-9.2l-1-145.6l2.3-8.9l2.3-5.1l4.4-6.7c0,0-9.3-9.3-10.3-10.4
	c-1-1.1-1.9-1.2-3-1.2c-1.1,0-1.4,0.9-1.4,0.9l2.3,0.7v18l-3.3,1.5l-7.2,3.1l-2.3,2.8V213l-3.3,14.1l-3.1,8.5l-5.7,9l-5.4,6.9
	l-8,6.9l-8.5,5.4l-14.4,4.4l-14.6,1.5l-15.1-2.6l-6-3c0,0,2.8-36.9,2.9-38.3c0.1-1.4-0.4-1.8-0.6-2c-0.2-0.2-3.4-3.4-4.1-4.1
	c-0.6-0.7-1.7-2-3-2c-1.3,0-1.2,1.2-1.2,1.2l2.4,1.3l-7.3,90.9l-1.6,1.6L14,313.2l-1.3-2.2c0,0-1.2-0.1-1.2,1c0,1.1,0.5,1.8,1.4,2.7
	c0.9,0.9,29.6,29.4,29.6,29.4s113.6,0,113.9,0c0.6,0,1-0.7,1.1-1.8c0.1-1.1,0.9-8.3,1-9.4c0.1-1.1,0.7-2.1,1.7-2.8
	c1-0.6,19.7-10.4,20.9-11.1c1.2-0.7,3.1-0.5,3.7,0c0.6,0.5,13.9,14.1,16.8,16.8c3,2.8,6.5,8.5,14,8.4c3.3-0.1,6.9-1.4,8.9-3.5
	c2.5-2.7,2.7-6.2,2.7-6.2l168-0.1c0,0,10.1,11,28.2,10.5c18.1-0.5,27.1-10.2,27.1-10.2l9.6,8.7l55-0.2c0,0,0.8-0.7,1.2-2
	c0.4-1.3,0.7-6.3,0.7-6.3s3.6,4.2,9.5,6.7c3.9,1.7,9.4,2.1,13.2,2.1c4.4,0.1,9.7-0.6,12.5-2.8c2.8-2.3,3.4-4.6,3.1-6.4l9.6,9
	c0,0,58.4,0.2,59.9,0.1c1.5-0.1,1.6-1.4,1.6-1.4l0.3-7.6c0,0,4.1,4,11,6.8c5.4,2.2,13.3,3.3,17.4,3.4c4.3,0,12-1.7,17-4.1
	c5.8-2.7,8.7-6.2,8.7-6.2l171.4-0.2c0,0,2.3,3.9,5.9,6.4c2.2,1.6,5.5,2.3,7.5,2.4c2.1,0,4.5-0.8,6.4-2.4c3-2.4,4.3-5.9,4.3-5.9
	s33,0.1,36.7,0c5.2-0.2,7.6-1.6,8.1-5.6c0.1-1,1.7-0.4,1.3-0.8C922.2,327.8,938,343,938,343s72.3-0.2,73.4-0.2
	c1.1,0,1.8-1.4,1.8-2.6c0-1.1-0.1-16.8-0.2-19.3c-0.1-2.4-1.1-3.2-1.8-3.9c-0.7-0.7-5.6-5.8-8.6-8.9c-3-3.1-3.3-6.8-3.3-6.8V74.7
	C999.3,73.1,1000.1,70.7,1002.9,69.3 M251.4,231c1.4-6,2.6-13.3,2.6-13.3l17.9,18.2l-24.2,8.5C247.7,244.4,250,237,251.4,231
	 M395.7,315.9c-11,0-20.7-5.2-27-13.2c-18.2,0-180.4-0.2-180.4-0.2c-1.8,0-3.5,1.7-3.5,3.5c0,1.9,1.7,3.6,3.7,3.7
	c1.1,0,1.9-0.7,2.7-1.3c0.7-0.7,3.1-2.2,4.8-0.7c1.3,1.4,0.8,3.4-0.7,5c-1.1,1.2-4.1,2.9-6.8,2.9c-4.5,0-9.5-3.2-9.6-9.5
	c-0.1-5.2,4.7-9.3,8.1-9.4l185.9,0.2c4.9,7.4,13.3,12.2,22.8,12.2c15.2,0,27.5-12.4,27.5-27.6s-12.3-27.6-27.5-27.6
	c-9.2,0-17.4,4.6-22.4,11.6c-2.8,0-58.6,0.2-58.7,0.2c-2.8,0.1-9.3-2.5-9.3-9.6c0-6,5.3-9.5,9.2-9.4c3.6,0.1,6.4,1.6,7.7,3.6
	c0.9,1.4,1.2,3.6-0.1,4.7c-1.3,1-3.2,0.8-4.2-0.5c-0.5-0.7-1.7-1.9-3.1-1.9c-1.8,0.1-3.8,1.2-3.8,3.7c0,2.3,2.2,3.6,3.6,3.6
	l54.6-0.2c6.3-7.7,15.8-12.6,26.5-12.6c19,0,34.4,15.5,34.4,34.5S414.7,315.9,395.7,315.9 M389.4,278.2c1.1-2.4,3.5-4.1,6.2-4.1
	c3.8,0,6.9,3.1,6.9,6.9c0,3.8-3.1,6.9-6.9,6.9c-2.7,0-5-1.6-6.1-3.9l-163.1-0.2c-1.6,0-2.9-1.3-2.9-2.9c0-1.6,1.3-2.9,2.9-2.9
	L389.4,278.2 M485.9,312.3c0,0.4-0.4,0.7-0.8,0.7l-45.4-0.1c-0.4,0-0.8-0.4-0.8-0.8l-0.2-5.4c0-0.3,0.2-0.6,0.5-0.8l2.5-1.3
	c0.8-0.5,1.7-1.4,2.1-1.9c0.2-0.3,0.9-1.3,1.3-2.6c0.4-1.4,0.5-2.9,0.5-2.9s-0.2-54.6-0.2-55.5c0,0-0.4-3.9-0.4-3.9
	c-0.3-1.6-0.9-3.1-1.2-3.7c-0.2-0.3-0.8-1.2-1.9-2l-2.7-1.3c-0.3-0.1-0.5-0.5-0.5-0.8l0.1-5.8c0-0.4,0.3-0.8,0.7-0.8l29.8-2.4
	c0.2,0,0.5,0.1,0.6,0.2c0.2,0.1,0.3,0.4,0.3,0.6c0,0,0.1,6.3,0.1,6.3c0,0.3-0.2,0.7-0.6,0.8c-1.7,0.6-3,1.3-3.4,1.9
	c0,0-0.3,0.4-0.3,0.4c-0.4,0.5-0.9,1.1-1.1,1.9c-0.3,0.9-0.4,1.9-0.4,2.4c0,0,0,0.1,0,0.1c0,0,0,0.1,0,0.1c0,0,0,0.1,0,0.1
	c0,0,0,0,0,0c-0.1,0.4-0.1,3.7-0.1,8.6c0,16.8,0.2,52.2,0.2,52.5l0,0.3c0.1,1.2,0.3,3.2,0.9,4.5c0.7,1.4,1.8,2.1,2.4,2.1
	c0.8,0,3.1-0.7,5-2.9c1.1-1.2,2.1-3.3,3.1-6.1c0.3-0.8,1.3-3.7,2-6.7l1.3-7.3c0.1-0.4,0.4-0.7,0.8-0.7l8,0.2c0.2,0,0.4,0.1,0.6,0.3
	c0.2,0.2,0.2,0.4,0.2,0.6L485.9,312.3 M526,310.4c-0.8,0.8-1.5,1.2-3,1.8c0,0-3.3,1-3.4,1c0,0-0.7,0.2-0.8,0.2c0,0-2.8,0.3-2.9,0.3
	c0,0-8.6,0-8.7,0c-0.3,0-2.4-0.2-4.6-1c-2.4-0.9-4.3-2.5-5-3.2c-0.7-0.8-2.3-2.8-3.1-5c-0.9-2.6-1-5.3-1.1-5.6c0,0,0-39.3,0-39.3
	l0-0.4c0-0.8-0.1-1.3-0.3-1.5c-0.3-0.3-1.2-0.4-1.7-0.4h-8c-0.2,0-0.4-0.1-0.6-0.3c-0.1-0.2-0.2-0.4-0.2-0.6l0.1-8.3
	c0-0.4,0.4-0.8,0.8-0.8c0,0,8.3,0,8.3,0c0.6,0,1.1-0.1,1.3-0.2c0.2-0.1,0.3-0.6,0.3-1.2v-10.6c0-0.4,0.3-0.7,0.6-0.8l17.1-4.5
	c0.2-0.1,0.5,0,0.7,0.1c0.2,0.2,0.3,0.4,0.3,0.7v14.9c0,0.5,0.1,1,0.3,1.2c0.1,0.1,0.7,0.3,1.9,0.2h10.5c0.4,0,0.8,0.5,0.8,0.9
	l0,0.4l-0.3,3.9c-0.3,2.2-0.8,3.8-1,4.5c-0.1,0.3-0.4,0.5-0.8,0.5c0,0-8.2,0-9.1,0c-0.1,0-0.3,0.1-0.4,0c0,0-0.1,0-0.2-0.1
	c-0.3,0-1.1,0.1-1.4,0.4c-0.3,0.3-0.3,0.9-0.3,1.1v0.9c0,21.2,0,33.9,0,35.6c0,1.3,0.3,4.4,2,6.1c1.6,1.6,4.7,1.7,5.3,1.7
	c1,0,2.5-0.1,3.9-0.4l2.4-0.8c0.2-0.1,0.6-0.1,0.8,0.1c0.2,0.2,0.4,0.4,0.4,0.7l0.1,5.6C527.2,308.9,527,309.5,526,310.4
	 M589.5,312.4c0,0.5-0.4,0.8-0.8,0.8H567c-0.6,0-2-0.2-2.9-1.1c-1.2-1.1-2-2.7-2.2-3h-0.8c-0.5,0.4-3,2.3-4.9,3.3
	c-1.9,0.9-4.6,1.3-5.6,1.4l-2.1,0l-4,0c-2.7-0.1-6.9-1.7-10-4.8c-3.3-3.3-3.6-7.9-3.6-8c0,0,0-37.9,0-37.8c0-0.1,0-8.4,5.4-12.9
	c4.3-3.7,12.3-4.5,13.6-4.5c1.1,0,4.1,0.3,6.5,1.1c1.6,0.5,2.9,1.2,3.7,1.7c0,0,0.9,0.4,1.1,0.5c0.3,0,0.7-0.1,0.9-0.4
	c0.2-0.3,0.3-0.9,0.4-1.3c0,0,0-9.4,0-9.4c0,0.1-0.1,0-0.1,0.1c0,0,0-0.1,0.1-0.2c0-0.1,0-0.2,0-0.2c0-0.7-0.3-1.9-0.6-2.7
	c-0.7-1.5-2.2-3-2.4-3.3c-0.5-0.5-1.8-1.6-3.2-2.1c-0.7-0.3-1.7-0.5-2.6-0.5c-0.4,0-0.8-0.4-0.8-0.8v-6.2c0-0.2,0.1-0.4,0.2-0.6
	c0.2-0.1,0.4-0.2,0.6-0.2l0,0l10,0.1c7.2,0.1,14.6,1.3,16.8,1.7c0.4,0.1,0.7,0.4,0.7,0.8c0,0.7,0.1,72.7,0.1,74.9c0,0,0.1,4,2.3,5.6
	c1.6,1.3,4.2,1.5,5.2,1.5c0.4,0,0.8,0.4,0.8,0.8L589.5,312.4 M837.9,315.5c-2.7,0-5.6-1.7-6.8-2.9c-1.5-1.6-2-3.6-0.7-5
	c1.7-1.5,4,0,4.8,0.7c0.7,0.7,1.6,1.3,2.7,1.3c2-0.1,3.7-1.8,3.7-3.7c0-1.9-1.6-3.5-3.5-3.5c0,0-162.2,0.2-180.4,0.2
	c-6.3,8.1-16,13.2-27,13.2c-19,0-34.3-15.5-34.3-34.5c0-19.1,15.4-34.5,34.3-34.5c10.7,0,20.2,4.9,26.5,12.6l57.9,0.2
	c1.4,0,3.6-1.3,3.6-3.6c0-2.5-2-3.6-3.8-3.7c-1.4,0.1-2.6,1.2-3.1,2c-1,1.3-2.9,1.5-4.2,0.5c-1.3-1.1-1-3.3-0.1-4.7
	c1.3-2,4-3.6,7.7-3.6c4-0.1,9.3,3.4,9.2,9.4c0,7.1-6.5,9.7-9.3,9.6c-0.1,0-59.2-0.2-62-0.2c-5-7-13.1-11.6-22.4-11.6
	c-15.2,0-27.5,12.4-27.5,27.6c0,15.2,12.3,27.6,27.5,27.6c9.5,0,17.9-4.9,22.8-12.2l185.9-0.2c3.4,0.1,8.2,4.2,8.1,9.4
	C847.4,312.3,842.4,315.5,837.9,315.5 M800.1,278c1.6,0,2.9,1.3,2.9,2.9c0,1.6-1.3,2.9-2.9,2.9L636.8,284c-1.1,2.3-3.4,3.9-6.1,3.9
	c-3.8,0-6.9-3.1-6.9-6.9c0-3.8,3.1-6.9,6.9-6.9c2.8,0,5.2,1.7,6.3,4.1L800.1,278 M895.9,307.7c-1.3,2.2-4.2,2.9-6.4,1.5
	c-0.7-0.4-71.2-43.2-161.1-69.1c-72.4-20.8-144.3-31.4-213.9-31.4c-50.3,0-113.3,3.1-198.9,26.4c-91.8,25-168,69.5-171.2,71.4
	c0,0-2.1,0.8-3.5,0.5c-1.9-0.3-2.8-2.1-2.8-2.1c-1.3-2.2-0.6-5.1,1.7-6.4c3.2-1.9,80.5-47.1,173.5-72.4
	c86.7-23.6,150.4-26.7,201.3-26.7c70.4,0,143.2,10.7,216.5,31.8c91,26.2,162.6,69.6,163.3,70C896.5,302.6,897.2,305.5,895.9,307.7
	 M555.6,255.8c-5.7,0-6.6,5.3-6.6,6.7c0,0.9,0.1,30.1,0.1,31.9c0,2.9,2.6,6.3,7.1,6.3c4.3,0,6.7-4,6.8-6.3c0-1.7,0.1-31.7,0-32.5
	C562.7,260.9,561.8,255.8,555.6,255.8z"/>
</svg>
