<?xml version="1.0" encoding="utf-8"?>
<!-- Generator: Adobe Illustrator 21.1.0, SVG Export Plug-In . SVG Version: 6.00 Build 0)  -->
<svg version="1.1"
	 id="svg3209" inkscape:version="0.48.5 r10040" sodipodi:docname="Solo-a-star-wars-story.svg" xmlns:cc="http://creativecommons.org/ns#" xmlns:dc="http://purl.org/dc/elements/1.1/" xmlns:inkscape="http://www.inkscape.org/namespaces/inkscape" xmlns:rdf="http://www.w3.org/1999/02/22-rdf-syntax-ns#" xmlns:sodipodi="http://sodipodi.sourceforge.net/DTD/sodipodi-0.dtd" xmlns:svg="http://www.w3.org/2000/svg"
	 xmlns="http://www.w3.org/2000/svg" xmlns:xlink="http://www.w3.org/1999/xlink" x="0px" y="0px" viewBox="0 0 1000 505.8"
	 style="enable-background:new 0 0 1000 505.8;" xml:space="preserve">
<style type="text/css">
	.st0{fill:#FFDD00;}
</style>
<sodipodi:namedview  bordercolor="#666666" borderopacity="1" fit-margin-bottom="0" fit-margin-left="0" fit-margin-right="0" fit-margin-top="0" gridtolerance="10" guidetolerance="10" id="namedview3211" inkscape:current-layer="svg3209" inkscape:cx="901.39316" inkscape:cy="-157.26039" inkscape:object-paths="false" inkscape:pageopacity="0" inkscape:pageshadow="2" inkscape:window-height="706" inkscape:window-maximized="1" inkscape:window-width="1366" inkscape:window-x="-8" inkscape:window-y="-8" inkscape:zoom="0.31790678" objecttolerance="10" pagecolor="#ffffff" showgrid="false">
	</sodipodi:namedview>
<g id="text2999" transform="matrix(2.0653486,-0.40240601,0.40240601,2.0653486,780.64077,548.52819)">
</g>
<text id="text3052" transform="matrix(1 -0.1317 0 1 1472.9878 467.4166)" style="font-family:'ArialMT'; font-size:28.3234px;"> </text>
<g id="g3290" transform="matrix(1.0259344,0,0,1.0259344,-1.1795191,-1.2197978)">
	<g id="g3147" transform="matrix(9.1527992,-1.6138791,0,9.1527992,-2179.0072,566.78177)">
		<path id="path3128" inkscape:connector-curvature="0" sodipodi:nodetypes="ccccscccccsccccc" class="st0" d="M258.6,11.3l3,3.7
			c1.1,1.3,3.8,4.7,3.8,6.4c0,1.6,0,2.8-1.4,4c-1.4,1.2-2.3,0.9-4,0.9l-13.8,0l0.1-6.4l9.5,0.1l0.7,0l-4.1-4.3
			c-0.8-1-2.8-3.5-2.8-5.7c0-1.8,0.2-2.7,1.5-4.1c1.1-1.1,4.1-0.9,6.2-1.1L267.7,5l0,6.4L258.6,11.3z"/>
		<path id="path3130" inkscape:connector-curvature="0" sodipodi:nodetypes="cccscccccccscscccc" class="st0" d="M285.5,16
			c0-1.1-0.1-3.1-1-3.9c-0.8-0.8-2.9-1.2-4-1.2c-1.1,0-2.6,0.3-3.5,1.1c-0.8,0.8-0.9,2.6-1,4c0.1,1.3-0.1,2.5,0.9,3.8
			c0.9,1,2.5,1.2,3.6,1.2c1.1,0,3-0.3,3.8-1.1C285.2,19.2,285.4,17.8,285.5,16L285.5,16z M293.3,16.5c0,3-1,5.6-3.3,7.7
			c-2.3,2.1-5.9,2.6-9,2.6c-3.5,0-6.3-0.4-9-2.4c-2.4-2-3.8-4.6-3.8-7.6c0-4,0.9-7.1,2.9-8.7c2.3-2.1,5-3,8-3
			c3.8-0.4,8.4,0.6,11.2,3.2C292.8,10.3,293.3,13.4,293.3,16.5L293.3,16.5z"/>
		<path id="path3132" inkscape:connector-curvature="0" sodipodi:nodetypes="ccccccc" class="st0" d="M294.7,26.7l0.1-21.5l7.2,0.1
			l0.1,14.6l8.2,0.1l0,6.7L294.7,26.7z"/>
		<path id="path3137" inkscape:connector-curvature="0" sodipodi:nodetypes="cccscccccccscscccc" class="st0" d="M328.5,16.5
			c0-1.1-0.1-3.1-1-3.9c-0.8-0.8-2.9-1.2-4-1.2c-1.1,0-2.6,0.3-3.5,1.1c-0.8,0.8-0.9,2.6-1,4c0.1,1.3-0.1,2.5,0.9,3.8
			c0.9,1,2.5,1.2,3.6,1.2c1.1,0,3-0.3,3.8-1.1C328.3,19.7,328.5,18.3,328.5,16.5L328.5,16.5z M336.3,17c0,3-1,5.6-3.3,7.7
			c-2.3,2.1-5.9,2.6-9,2.6c-3.5,0-6.3-0.4-9-2.4c-2.4-2-3.8-4.6-3.8-7.6c0-4,0.9-7.1,2.9-8.7c2.3-2.1,5-3,8-3
			c3.8-0.4,8.4,0.6,11.2,3.2C335.8,10.8,336.3,13.9,336.3,17L336.3,17z"/>
	</g>
	<path id="path3219" inkscape:connector-curvature="0" sodipodi:nodetypes="ccccccccccccccccccccc" class="st0" d="M208.2,431.3
		c-3.7,5.1-5.4,10.8-4.3,17.3L34.3,477c-24,3.5-33.2-9.8-33.2-21.5V181.7c1.1-10.4,4.3-20,19.5-25L943.8,1.5
		c18.8-2.1,28.7,6.1,32,18.4l-0.4,279.1c0,10.9-11.2,20.6-18.8,22.6l-216.2,36.9v-16.7L943,307.7c10.6-2.8,16-8,16.3-20.4V37.1
		c-0.3-12-7.9-19.6-23.7-17.7l-899.5,151c-17.5,5.7-17.9,13.2-17.9,18.5v257.3c0,11.5,9.1,14.7,19.7,13.4L208.2,431.3z"/>
	<path id="path3075" inkscape:connector-curvature="0" class="st0" d="M160.9,481.8l0.1,0.2l6.5-0.9l-3.2-8.8l-0.2,0.2L160.9,481.8z
		 M164.9,464.9c0.4-0.2,0.7,0.1,1,0.7l8.7,21.3c0.6,1.1,1,1.9,1.3,2.2c0.5,0.5,0.9,0.8,1.3,0.9c0.6,0.1,1.3,0.1,1.9,0l0.2,0.1
		c0,0.3-0.1,0.5-0.4,0.5l-1.1,0.2c-5,0.7-7.4,0.9-7.5,0.7v-0.3c0.2-0.2,0.4-0.3,0.6-0.3c0.1-0.1,0.2-0.3,0.3-0.6l-2.8-7.5l-0.2-0.1
		l-7.7,1l-0.3,0.4l-2,5.8l-0.3,1.2c0,0.7,0.1,1.1,0.4,1.2l0.4,0.1c0.9-0.1,1.4-0.1,1.5-0.1c0.1,0.3,0,0.5-0.2,0.6
		c-2.3,0.2-5.1,0.6-8.5,1.1l-0.2-0.2l0.1-0.4l0.4-0.2c0.8,0,1.6-0.3,2.4-0.9c0.6-0.5,1.1-1.6,1.7-3.3l8.6-23.5
		C164.5,465.4,164.7,465.1,164.9,464.9L164.9,464.9z"/>
	<g id="g3087" transform="matrix(1.934722,-0.32227171,0,1.934722,207.53911,442.04101)">
		<path id="path3077" inkscape:connector-curvature="0" class="st0" d="M270.5,17.7c0.1,0,0.1,0,0.2,0.1c0.1,1.7,0.8,2.6,2.1,2.8
			c0.4,0.1,0.9,0,1.3-0.1c0.7-0.3,1.2-0.8,1.3-1.6c0-0.3,0-0.6,0-0.8c0-0.1-0.1-0.4-0.3-0.7l-0.3-0.4l-0.8-0.8c-1-0.8-1.7-1.4-2-1.7
			c-0.3-0.3-0.7-0.7-0.9-1.2c-0.7-1.4-0.7-2.6,0-3.7c0.7-0.9,1.7-1.4,3-1.5c0.6,0,1.3,0,2,0.1c0.6,0.1,0.9,0.2,0.9,0.3l-0.1,1.2v1.2
			c0,0.2-0.1,0.3-0.1,0.3c-0.1,0-0.2,0-0.2-0.1l-0.1-0.7c-0.2-0.6-0.6-1-1.1-1.3c-0.3-0.2-0.8-0.2-1.4-0.2c-0.9,0.2-1.5,0.7-1.6,1.6
			v0.4c0,0.3,0.1,0.5,0.2,0.7l0.4,0.5l0.6,0.6c1.3,1,2,1.6,2.1,1.7c1.6,1.5,2.1,3.1,1.5,4.9c-0.6,1.5-1.8,2.2-3.7,2.4
			c-0.5,0-1,0-1.4-0.1c-0.4-0.1-0.8-0.1-1-0.2c-0.4-0.2-0.6-0.3-0.6-0.3l-0.1-0.2c0-0.7,0-1.6,0.1-2.7
			C270.4,17.9,270.4,17.8,270.5,17.7L270.5,17.7z"/>
		<path id="path3079" inkscape:connector-curvature="0" class="st0" d="M279.7,8c0,0.1,0.5,0.1,1.3,0.2l8.2,0l1-0.2
			c0.1,0,0.2,0,0.2,0.1l-0.1,2.5c0,0.1-0.1,0.1-0.1,0.2l-0.2-0.1l-0.1-0.1L290,10c-0.1-0.4-0.6-0.7-1.4-0.8c-0.8,0-1.7-0.1-2.8-0.1
			v9.3c0,1.1,0.1,1.8,0.1,2.1c0.1,0.3,0.2,0.4,0.4,0.5l0.4,0.1l0.7,0c0.2,0,0.3,0,0.3,0.1c0,0.1,0,0.2-0.2,0.2c-2.9,0-4.6,0-5.1,0
			c-0.2,0-0.3,0-0.3-0.1c0-0.1,0-0.2,0.1-0.2c0.6,0,0.9-0.1,1-0.2c0.2-0.1,0.3-0.8,0.3-2V9.2l-3.1,0.1c-0.5,0.1-0.8,0.2-0.9,0.3
			l-0.3,0.5l-0.2,0.5c-0.2,0.1-0.3,0.1-0.3,0c-0.1-0.1,0-0.6,0.2-1.4c0.1-0.7,0.2-1.1,0.3-1.2C279.3,7.9,279.4,7.9,279.7,8L279.7,8z
			"/>
		<path id="path3081" inkscape:connector-curvature="0" class="st0" d="M294.3,13.6c0,0.4,0,1,0.1,1.7c0.1,0.9,0.4,1.7,0.7,2.4
			c0.5,0.9,1.1,1.6,1.8,2.1c0.6,0.3,1.2,0.5,2,0.7c0.8,0,1.5,0,2-0.3c1.4-0.7,2.2-2.1,2.4-4.5c0.1-2.1-0.3-3.9-1.2-5.1
			c-0.8-1.1-1.9-1.8-3.4-2c-0.8,0-1.5,0.1-2,0.3C295.3,9.7,294.4,11.2,294.3,13.6L294.3,13.6z M298.4,7.8c1.2-0.1,2.3,0.1,3.2,0.4
			c2.5,0.9,3.9,2.8,4.1,5.7c0.1,2.3-0.6,4.2-2,5.6c-0.7,0.7-1.5,1.2-2.3,1.5c-0.7,0.3-1.5,0.4-2.3,0.5c-1.1,0-2.1-0.1-3-0.4
			c-2.5-1-3.9-3-4.2-6c-0.1-2.1,0.6-3.8,1.9-5.3C295.1,8.5,296.6,7.9,298.4,7.8z"/>
		<path id="path3083" inkscape:connector-curvature="0" class="st0" d="M312,8.6v5.8c0.1,0.1,0.4,0.2,1,0.3c0.6,0,1,0,1.3-0.1
			c0.8-0.4,1.2-1.3,1.3-2.7c0-2-0.8-3.1-2.3-3.5C312.6,8.4,312.1,8.5,312,8.6z M308.4,7.6l3.2,0.1l2.2-0.1c0.5,0,0.9,0.1,1.4,0.2
			c0.9,0.3,1.5,0.6,1.9,1.1c0.4,0.5,0.6,1,0.7,1.7c0,1-0.2,1.8-0.6,2.5c-0.3,0.4-0.5,0.7-0.8,1l-0.9,0.9l2.8,3.6
			c0.7,0.9,1.3,1.4,1.6,1.7l0.3,0.2c0.4,0.3,1,0.4,1.7,0.5c0.1,0.1,0.1,0.2,0,0.3l-0.3,0.1c-0.9,0-1.8,0-2.6-0.1
			c-0.5-0.1-1-0.3-1.4-0.7c-0.4-0.4-0.9-0.9-1.4-1.7l-2-2.9c-0.1-0.2-0.2-0.3-0.4-0.3c-1,0-1.5,0-1.7,0c-0.1,2.4,0,3.9,0.2,4.7
			c0.1,0.3,0.3,0.4,0.3,0.4l1.3,0.2c0.1,0.2,0,0.3-0.1,0.3c-2,0-3.7,0-5.1,0l-0.1-0.1c0-0.1,0-0.2,0.1-0.2l0.9-0.1
			c0.2,0,0.4-0.2,0.5-0.7c0.1-1.1,0.1-1.8,0.1-2.2V9.2c0-0.5-0.1-0.8-0.3-1C309.4,8,309.2,8,309,8l-0.7,0c-0.1,0-0.2-0.1-0.1-0.2
			C308.2,7.6,308.3,7.6,308.4,7.6L308.4,7.6z"/>
		<path id="path3085" inkscape:connector-curvature="0" class="st0" d="M319.1,7.7c0.9,0.1,1.9,0.1,2.9,0.1l1.3-0.1l0.1,0.1l0,0.1
			v0.1c-0.2,0.1-0.4,0.2-0.4,0.2c-0.2,0.1-0.2,0.2-0.2,0.4c0.1,0.2,0.2,0.6,0.4,1l2.6,4.7l0,0.1h0l0.6-1.3l1.9-3.6l0.2-0.8
			c0-0.1,0-0.3-0.1-0.4l-0.2-0.2c-0.3,0-0.4-0.1-0.4-0.2c0-0.1,0.1-0.2,0.2-0.2c1.2,0.1,2.4,0.1,3.7,0c0.1,0,0.2,0,0.2,0.1L332.3,8
			L332.2,8c-0.1,0-0.4,0-0.7,0.1c-0.2,0.1-0.4,0.2-0.6,0.4c-0.4,0.3-1.5,2-3.3,5.2c-0.4,0.7-0.6,1.2-0.7,1.4
			c-0.1,0.4-0.2,1.2-0.2,2.3c0,0.9,0,1.7,0.1,2.5c0,0.2,0.1,0.4,0.2,0.6c0.1,0.1,0.2,0.2,0.4,0.3l1.2,0.1c0.1,0.1,0.1,0.1,0.1,0.2
			l-0.1,0.1c-2,0-3.8,0-5.3,0l-0.1-0.1c0-0.1,0-0.2,0.1-0.2l0.9-0.1c0.1,0,0.2-0.1,0.3-0.2c0.2-0.2,0.3-1.6,0.3-4.4
			c-0.1-0.5-0.1-0.8-0.2-1c-0.1-0.3-0.3-0.6-0.5-1.1c-1.3-2.3-2.4-4-3.1-5.1c-0.3-0.3-0.5-0.6-0.8-0.8l-0.6-0.2L319,8
			c-0.1,0-0.1-0.1-0.1-0.2L319.1,7.7z"/>
	</g>
	<g id="g3234">
		<g id="g3209">
			<path id="path3145" inkscape:connector-curvature="0" sodipodi:nodetypes="cccccsccccccscccccccc" class="st0" d="M318.8,412.5
				l-45.6,7.5v0l-27.1,4.6c-5.5,1.5-11.1,3.3-14.1,6.7c-3.6,4.1-6.1,7.4-6.1,12.1c0,5.6,4,10.5,6.2,12.7l4.6,4.4l-43.6,8l-0.2,18.4
				l51.6-8.8c6-1,9.8-4.2,13.5-8c3.7-3.8,3.6-8,3.6-12.1c0-7-5.4-10.3-8.2-13.1l-4.2-4l27.8-4.7l0.1,36.2l18.2-3.1v-35.9l23.4-4.5
				L318.8,412.5z"/>
			<path id="path3188" inkscape:connector-curvature="0" class="st0" d="M357.9,406.6l-29.8,4.5l-16.1,55.7l19.6-3.9l2.4-7.9l19-3.3
				l3.2,7.3l18.8-3.7L357.9,406.6z M343.5,423.9l5.3,14.4l-10,1.7L343.5,423.9z"/>
			<path id="path3191" inkscape:connector-curvature="0" class="st0" d="M418.1,396.3c-1.9,0-3.1,0.1-3.1,0.1l-36.1,6.6v52.1
				l20.9-3.6l0.2-14.8l11.9,8.9l5.8,2.6l6.6-0.2l18.2-3.1l0.1,0l11.8-2v-19.1l-28.8,4.9c-2.3,0.2-1.4-0.4-0.7-1c0,0,10-3.5,10-19.3
				C434.9,397.8,423.7,396.4,418.1,396.3L418.1,396.3z M411.2,411.6c0,0,4.1,0,4.5,2.6c0.5,3.2-4.2,4.7-4.2,4.7l-11.6,2.3l-0.1-7.3
				L411.2,411.6z M454.3,421.7L454.3,421.7L454.3,421.7L454.3,421.7z"/>
		</g>
		<g id="g3229">
			<path id="path3175" inkscape:connector-curvature="0" sodipodi:nodetypes="cccsccccssccccccccccccscccccscccc" class="st0" d="
				M725.6,343.5l-32,5.2c-5.5,1.5-11.1,3.3-14.1,6.7c-3.6,4.1-6.1,7.4-6.1,12.1c0,5.6,4,10.5,6.2,12.7l5.7,4l-31.2,5.3
				c-2.3,0.2-1.4-0.4-0.7-1c0,0,10-3.5,10-19.3c0-10.6-11.2-12.1-16.8-12.2c-1.9,0-3.1,0.1-3.1,0.1l-36.1,6.6v52.1l20.9-3.6
				l0.2-14.8l11.9,8.9l5.8,2.6l6.6-0.2l18.2-3.1l0.1,0l21-3.5c6-1,9.8-4.2,13.5-8c3.7-3.8,3.6-8,3.6-12.1c0-7-5.4-10.3-8.2-13.1
				l-4.2-4l28.9-4.7L725.6,343.5z M639.8,372.3c0,0,4.1,0,4.5,2.6c0.5,3.2-4.2,4.7-4.2,4.7l-11.6,2.3l-0.1-7.3L639.8,372.3z"/>
			<path id="path3207" inkscape:connector-curvature="0" class="st0" d="M585.3,367.9l-29.8,4.5l-16.1,55.7l19.6-3.9l2.4-7.9l19-3.3
				l3.2,7.3l18.8-3.7L585.3,367.9z M570.9,385.2l5.3,14.4l-10,1.7L570.9,385.2z"/>
			<path id="rect3219" inkscape:connector-curvature="0" sodipodi:nodetypes="cccccccccccccc" class="st0" d="M545.7,374.3l-22,3.5
				l-2.8,14l-4.2-12.5l-22.8,3.7l-4.2,15.2l-4-13.8l-22,3.5l16.2,49.5l19.4-2.5l6-19.9l6.2,17.5l18-2.5L545.7,374.3z"/>
		</g>
	</g>
	<g id="g3271" transform="matrix(0.15877264,-0.0196749,0,0.15877264,805.71049,372.82773)">
		<g id="text3273">
			<path id="path3285" inkscape:connector-curvature="0" class="st0" d="M260,18.6c0,0.1,1.1,0.3,3.1,0.4l19.4,0l2.3-0.4
				c0.3,0,0.5,0,0.5,0.2l-0.1,5.9c-0.1,0.2-0.2,0.3-0.3,0.4l-0.4-0.1l-0.1-0.3l-0.1-1.3c-0.3-1-1.4-1.6-3.2-1.9
				c-1.8-0.1-4-0.2-6.6-0.2v22c0.1,2.6,0.2,4.2,0.3,4.9c0.2,0.6,0.4,1,0.8,1.2l0.9,0.3l1.8,0.1c0.4,0,0.6,0.1,0.7,0.2
				c0,0.3-0.1,0.5-0.4,0.6c-6.9-0.1-10.9-0.1-11.9,0.1c-0.4,0-0.7-0.1-0.8-0.3c0-0.2,0-0.4,0.2-0.5c1.4,0,2.2-0.2,2.4-0.5
				c0.5-0.3,0.8-1.9,0.8-4.8V21.4l-7.3,0.2c-1.1,0.1-1.9,0.4-2.2,0.7l-0.7,1.1l-0.4,1.2c-0.4,0.3-0.7,0.2-0.7-0.1
				c-0.1-0.2,0-1.3,0.4-3.2c0.3-1.6,0.5-2.5,0.7-2.7C259.1,18.3,259.5,18.3,260,18.6z"/>
			<path id="path3287" inkscape:connector-curvature="0" class="st0" d="M293.9,18.7c0.4-0.1,0.6,0,0.8,0.2c0.1,0,1,1.8,2.6,5.3
				l8.8,18.8l11.1-24c0.3-0.3,0.6-0.4,0.9-0.2c0.2,0.2,0.3,0.5,0.4,0.8l3.8,26.6c0.3,1.7,0.8,2.8,1.4,3.2c0.5,0.2,1.1,0.4,1.7,0.5
				l1.7,0.1l0.2,0.2c0,0.3-0.2,0.5-0.5,0.6c-6.6,0-9.9-0.2-9.9-0.6v-0.3l0.4-0.3c0.2-0.1,0.3-0.3,0.3-0.4v-1.2l-2.4-18.1H315
				l-9.2,19.9c-0.5,0.9-0.8,1.2-1,1.1c-0.2,0.1-0.8-0.9-1.9-3l-4-8.1l-4.2-9.4l-0.2-0.1l-2.2,17.3c-0.2,1.1,0,1.7,0.5,2
				c0.4,0.2,1.3,0.4,2.8,0.5c0.2,0.2,0.3,0.3,0.2,0.5l-0.4,0.3c-3.4-0.1-6.5-0.1-9.2,0l-0.3-0.3c0-0.2,0-0.3,0.1-0.4l1.9-0.2
				c0.7-0.3,1.2-1.4,1.5-3.3l3.9-27.1C293.7,18.9,293.8,18.7,293.9,18.7z"/>
		</g>
		<g id="text3275">
		</g>
	</g>
</g>
</svg>
